<?xml version="1.0" encoding="UTF-8" standalone="no"?>
<!-- Created with Inkscape (http://www.inkscape.org/) -->

<svg
   xmlns:dc="http://purl.org/dc/elements/1.1/"
   xmlns:cc="http://creativecommons.org/ns#"
   xmlns:rdf="http://www.w3.org/1999/02/22-rdf-syntax-ns#"
   xmlns:svg="http://www.w3.org/2000/svg"
   xmlns="http://www.w3.org/2000/svg"
   xmlns:sodipodi="http://sodipodi.sourceforge.net/DTD/sodipodi-0.dtd"
   xmlns:inkscape="http://www.inkscape.org/namespaces/inkscape"
   width="512"
   height="512"
   viewBox="0 0 135.46666 135.46667"
   version="1.1"
   id="svg8"
   inkscape:version="0.92.2 (5c3e80d, 2017-08-06)"
   sodipodi:docname="U+4E5F.svg">
  <defs
     id="defs2" />
  <sodipodi:namedview
     id="base"
     pagecolor="#ffffff"
     bordercolor="#666666"
     borderopacity="1.0"
     inkscape:pageopacity="0.0"
     inkscape:pageshadow="2"
     inkscape:zoom="1"
     inkscape:cx="151.35919"
     inkscape:cy="285.39479"
     inkscape:document-units="px"
     inkscape:current-layer="layer1"
     showgrid="false"
     units="px"
     inkscape:window-width="1920"
     inkscape:window-height="1003"
     inkscape:window-x="-9"
     inkscape:window-y="-9"
     inkscape:window-maximized="1" />
  <metadata
     id="metadata5">
    <rdf:RDF>
      <cc:Work
         rdf:about="">
        <dc:format>image/svg+xml</dc:format>
        <dc:type
           rdf:resource="http://purl.org/dc/dcmitype/StillImage" />
        <dc:title></dc:title>
      </cc:Work>
    </rdf:RDF>
  </metadata>
  <g
     inkscape:label="圖層 1"
     inkscape:groupmode="layer"
     id="layer1"
     transform="translate(0,-161.53331)">
    <path
       style="fill:#000000;fill-rule:evenodd;stroke:#000000;stroke-width:0.26458332px;stroke-linecap:butt;stroke-linejoin:miter;stroke-opacity:1"
       d="m 40.481249,175.29164 c 0,0 -1.058333,5.29167 1.5875,10.84792 2.645833,5.55625 5.820833,38.1 2.910417,43.12708 -2.910417,5.02709 5.291666,2.11667 5.820833,-4.7625 0.529167,-6.87916 -1.852083,-38.36458 0.529167,-38.62916 2.38125,-0.26459 -5.820834,-12.96459 -10.847917,-10.58334 z"
       id="path5184"
       inkscape:connector-curvature="0" />
    <path
       style="fill:#000000;fill-rule:evenodd;stroke:#000000;stroke-width:0.26458332px;stroke-linecap:butt;stroke-linejoin:miter;stroke-opacity:1"
       d="M 0.26458337,227.14998 66.939582,196.45831 c 0,0 -60.0604154,38.36458 -62.4416654,38.36458 -2.3812499,0 -4.23333323,-7.67291 -4.23333323,-7.67291 z"
       id="path5188"
       inkscape:connector-curvature="0" />
    <path
       style="fill:#000000;fill-rule:evenodd;stroke:#000000;stroke-width:0.26458332px;stroke-linecap:butt;stroke-linejoin:miter;stroke-opacity:1"
       d="m 66.939582,196.45831 c 0,0 5.291667,-8.73125 14.552083,-0.79375 9.260417,7.9375 -4.497916,7.67292 -6.879166,10.05417 -2.38125,2.38125 -5.820834,19.31458 -10.31875,19.31458 -4.497917,0 9.260416,-20.90208 2.645833,-28.575 z"
       id="path5190"
       inkscape:connector-curvature="0" />
    <path
       style="fill:#000000;fill-rule:evenodd;stroke:#000000;stroke-width:0.26458332px;stroke-linecap:butt;stroke-linejoin:miter;stroke-opacity:1"
       d="m 21.431249,200.69164 c 0,0 4.497917,25.13542 3.96875,30.42709 -0.529166,5.29166 13.49375,15.61041 18.25625,15.08125 4.7625,-0.52917 89.164581,-3.175 89.429161,-5.02709 0.26458,-1.85208 6.35,1.32292 5.29167,-4.49791 -1.05834,-5.82084 -0.79375,-12.96459 -3.70417,-12.96459 -2.91042,0 0.79375,6.35 -4.7625,8.73125 -5.55625,2.38125 -31.220827,11.1125 -38.629162,8.99584 -7.408333,-2.11667 -35.454166,1.85208 -38.893749,0.52916 -3.439583,-1.32291 -20.108333,-1.85208 -20.902083,-8.73125 -0.79375,-6.87916 -0.79375,-23.54791 1.322917,-25.13541 2.116666,-1.5875 -6.085417,-8.20209 -11.377084,-7.40834 z"
       id="path5192"
       inkscape:connector-curvature="0" />
  </g>
</svg>
