<?xml version="1.0" encoding="UTF-8" standalone="no"?>
<!-- Created with Inkscape (http://www.inkscape.org/) -->

<svg
   xmlns:dc="http://purl.org/dc/elements/1.1/"
   xmlns:cc="http://creativecommons.org/ns#"
   xmlns:rdf="http://www.w3.org/1999/02/22-rdf-syntax-ns#"
   xmlns:svg="http://www.w3.org/2000/svg"
   xmlns="http://www.w3.org/2000/svg"
   xmlns:sodipodi="http://sodipodi.sourceforge.net/DTD/sodipodi-0.dtd"
   xmlns:inkscape="http://www.inkscape.org/namespaces/inkscape"
   width="512"
   height="512"
   viewBox="0 0 135.46666 135.46667"
   version="1.1"
   id="svg8"
   inkscape:version="0.92.2 (5c3e80d, 2017-08-06)"
   sodipodi:docname="U+52A9.svg">
  <defs
     id="defs2" />
  <sodipodi:namedview
     id="base"
     pagecolor="#ffffff"
     bordercolor="#666666"
     borderopacity="1.0"
     inkscape:pageopacity="0.0"
     inkscape:pageshadow="2"
     inkscape:zoom="0.70710678"
     inkscape:cx="41.738434"
     inkscape:cy="290.88356"
     inkscape:document-units="px"
     inkscape:current-layer="layer1"
     showgrid="false"
     units="px"
     inkscape:window-width="1920"
     inkscape:window-height="1003"
     inkscape:window-x="-9"
     inkscape:window-y="-9"
     inkscape:window-maximized="1" />
  <metadata
     id="metadata5">
    <rdf:RDF>
      <cc:Work
         rdf:about="">
        <dc:format>image/svg+xml</dc:format>
        <dc:type
           rdf:resource="http://purl.org/dc/dcmitype/StillImage" />
        <dc:title></dc:title>
      </cc:Work>
    </rdf:RDF>
  </metadata>
  <g
     inkscape:label="圖層 1"
     inkscape:groupmode="layer"
     id="layer1"
     transform="translate(0,-161.53331)">
    <path
       style="fill:#000000;fill-rule:evenodd;stroke:#000000;stroke-width:0.26458332px;stroke-linecap:butt;stroke-linejoin:miter;stroke-opacity:1"
       d="m 13.470384,198.59134 c 0,0 6.361015,9.72861 6.361015,17.39924 0,7.67064 0.748354,31.4309 0.748354,31.4309 0,0 0.561266,3.18051 2.619242,2.05797 2.057975,-1.12253 0.935443,-11.22532 0.935443,-11.22532 0,0 12.534941,-0.74835 12.534941,-4.49012 0,-3.74178 -6.548104,-2.24507 -10.289877,0.37417 -3.741773,2.61925 -1.496709,-14.40582 -2.057975,-15.15418 -0.561266,-0.74835 11.599497,-2.05797 11.599497,-3.18051 0,-1.12253 2.432153,-4.8643 0,-4.8643 -2.432154,0 -11.973675,3.92886 -11.973675,3.92886 l 0.187089,-12.90912 c 0,0 -8.980256,-5.42557 -10.664054,-3.36759 z"
       id="path5271"
       inkscape:connector-curvature="0" />
    <path
       style="fill:#000000;fill-rule:evenodd;stroke:#000000;stroke-width:0.26458332px;stroke-linecap:butt;stroke-linejoin:miter;stroke-opacity:1"
       d="m 23.760261,193.53994 c 0,0 20.392664,-5.98683 21.889372,-3.74177 1.496711,2.24506 3.180509,-4.11595 5.612662,-1.12253 2.432153,2.99341 5.612659,6.17392 3.928862,8.2319 -1.683798,2.05797 -4.115951,11.41241 -4.490128,17.21216 -0.374179,5.79975 1.870885,37.79191 1.122532,40.22406 -0.748355,2.43215 -2.619243,11.22532 -4.30304,11.03823 -1.683798,-0.18709 -6.548104,-13.2833 -6.548104,-13.2833 0,0 -14.780004,2.24507 -16.65089,4.11596 -1.870887,1.87088 -16.0896258,9.35443 -16.2767145,10.47696 -0.1870884,1.12253 -6.1739258,-2.80633 -4.8643052,-5.98684 1.3096208,-3.1805 37.4177327,-13.65747 37.9789987,-15.52836 0.561266,-1.87088 5.238483,3.74178 5.238483,3.74178 0,0 0.374176,-19.64431 0.748355,-20.57976 0.374177,-0.93544 -0.374179,-22.82481 -0.374179,-22.82481 l 4.115951,-9.9157 c 0,0 -2.61924,-4.49013 -4.677217,-3.92887 -2.057974,0.56127 -19.083043,4.86431 -19.644309,5.61267 -0.561265,0.74835 -5.051393,-2.80633 -2.806329,-3.74178 z"
       id="path5273"
       inkscape:connector-curvature="0" />
    <path
       style="fill:#000000;fill-rule:evenodd;stroke:#000000;stroke-width:0.26458332px;stroke-linecap:butt;stroke-linejoin:miter;stroke-opacity:1"
       d="m 64.919767,225.90628 c 0,0 -4.303038,3.92886 -2.80633,6.17393 1.496708,2.24506 2.993419,5.61266 5.238483,4.49013 2.245063,-1.12254 17.399246,-11.97368 18.147601,-10.47697 0.748353,1.49671 -13.470384,26.56659 -13.470384,26.56659 0,0 -6.173925,6.17393 -5.61266,7.67064 0.561266,1.49671 3.367596,0 8.418989,-6.54811 5.051393,-6.5481 21.14102,-30.30836 20.392665,-31.05672 -0.748355,-0.74835 10.476969,-2.43215 10.851139,-1.12253 0.37418,1.30962 5.42558,5.98684 4.11595,8.04482 -1.30962,2.05797 -17.212153,28.99874 -20.392661,31.80507 -3.180506,2.80633 -8.044812,5.98684 -11.599497,6.17393 -3.554685,0.18708 -0.187087,2.80633 0.748355,5.23848 0.935442,2.43215 -0.935442,7.29646 1.309621,7.29646 2.245064,0 13.470385,-10.66406 13.470385,-11.41241 0,-0.74836 18.708867,-35.35976 19.457217,-35.35976 0.74836,0 3.55469,-2.24507 3.55469,-2.24507 0,0 -1.87089,-8.04481 -3.18051,-7.85772 -1.30962,0.18709 -3.92886,-4.30304 -5.79975,-4.30304 -1.87088,0 -8.231899,-0.37418 -8.980254,0 -0.748355,0.37418 0.374176,-3.18051 0.374176,-3.18051 0,0 -8.418988,-9.35443 -9.54152,-8.98025 -1.122532,0.37418 -4.677217,1.30962 -4.677217,1.30962 0,0 4.864304,1.49671 4.864304,3.55468 0,2.05798 -0.187087,8.98026 -1.496708,9.16735 -1.309622,0.18709 -20.766842,6.73519 -23.386084,5.05139 z"
       id="path5275"
       inkscape:connector-curvature="0" />
  </g>
</svg>
