<?xml version="1.0" encoding="UTF-8" standalone="no"?>
<!-- Created with Inkscape (http://www.inkscape.org/) -->

<svg
   xmlns:dc="http://purl.org/dc/elements/1.1/"
   xmlns:cc="http://creativecommons.org/ns#"
   xmlns:rdf="http://www.w3.org/1999/02/22-rdf-syntax-ns#"
   xmlns:svg="http://www.w3.org/2000/svg"
   xmlns="http://www.w3.org/2000/svg"
   xmlns:sodipodi="http://sodipodi.sourceforge.net/DTD/sodipodi-0.dtd"
   xmlns:inkscape="http://www.inkscape.org/namespaces/inkscape"
   width="512"
   height="512"
   viewBox="0 0 135.46666 135.46667"
   version="1.1"
   id="svg8"
   inkscape:version="0.92.2 (5c3e80d, 2017-08-06)"
   sodipodi:docname="U+5BE1.svg">
  <defs
     id="defs2" />
  <sodipodi:namedview
     id="base"
     pagecolor="#ffffff"
     bordercolor="#666666"
     borderopacity="1.0"
     inkscape:pageopacity="0.0"
     inkscape:pageshadow="2"
     inkscape:zoom="0.70710678"
     inkscape:cx="422.08805"
     inkscape:cy="163.28201"
     inkscape:document-units="px"
     inkscape:current-layer="layer1"
     showgrid="false"
     units="px"
     inkscape:window-width="1920"
     inkscape:window-height="1003"
     inkscape:window-x="-9"
     inkscape:window-y="-9"
     inkscape:window-maximized="1" />
  <metadata
     id="metadata5">
    <rdf:RDF>
      <cc:Work
         rdf:about="">
        <dc:format>image/svg+xml</dc:format>
        <dc:type
           rdf:resource="http://purl.org/dc/dcmitype/StillImage" />
        <dc:title></dc:title>
      </cc:Work>
    </rdf:RDF>
  </metadata>
  <g
     inkscape:label="圖層 1"
     inkscape:groupmode="layer"
     id="layer1"
     transform="translate(0,-161.53331)">
    <path
       style="fill:#000000;fill-rule:evenodd;stroke:#000000;stroke-width:0.26458332px;stroke-linecap:butt;stroke-linejoin:miter;stroke-opacity:1"
       d="m 57.62331,181.005 c 0,0 8.231902,5.23848 5.612659,8.98026 -2.61924,3.74177 20.205575,-2.24507 28.063301,-1.87089 7.857722,0.37418 0,2.99342 -2.993419,3.3676 -2.99342,0.37417 -37.791911,6.73519 -37.791911,6.73519 l -8.606078,7.48355 -5.238483,-10.10279 c 0,0 15.341269,-0.74836 18.708867,-1.49671 3.367596,-0.74836 -11.225321,-9.72861 -7.483546,-12.34785 3.741772,-2.61924 9.72861,-0.74836 9.72861,-0.74836 z"
       id="path5099"
       inkscape:connector-curvature="0" />
    <path
       style="fill:#000000;fill-rule:evenodd;stroke:#000000;stroke-width:0.26458332px;stroke-linecap:butt;stroke-linejoin:miter;stroke-opacity:1"
       d="m 20.579753,192.97868 c 0,0 8.231901,8.2319 1.122532,20.57975 -7.109369,12.34785 1.122532,11.97367 3.741774,9.35443 2.619242,-2.61924 7.483545,-17.21215 6.361014,-19.83139 -1.122532,-2.61925 -2.245064,-11.97368 -11.22532,-10.10279 z"
       id="path5101"
       inkscape:connector-curvature="0" />
    <path
       style="fill:#000000;fill-rule:evenodd;stroke:#000000;stroke-width:0.26458332px;stroke-linecap:butt;stroke-linejoin:miter;stroke-opacity:1"
       d="m 98.40864,186.24348 c 0,0 3.3676,9.35444 -2.245067,11.97368 -5.612659,2.61924 -0.374176,4.86431 3.367598,3.74177 3.741769,-1.12253 9.354429,-7.85772 9.354429,-7.85772 0,0 -4.8643,-13.47039 -10.47696,-7.85773 z"
       id="path5103"
       inkscape:connector-curvature="0" />
    <path
       style="fill:#000000;fill-rule:evenodd;stroke:#000000;stroke-width:0.26458332px;stroke-linecap:butt;stroke-linejoin:miter;stroke-opacity:1"
       d="m 37.043555,211.68754 c 0,0 34.798492,-5.61266 38.166087,-7.10937 3.367599,-1.4967 5.986839,3.74178 5.986839,3.74178 0,0 -1.496709,3.36759 -4.115951,3.36759 -2.61924,0 -12.34785,-1.87088 -16.089625,0.37418 -3.741774,2.24506 -6.735191,13.84456 -13.096205,16.08963 -6.361017,2.24506 6.735191,-11.5995 1.496708,-12.72203 -5.238483,-1.12254 -9.354434,3.74177 -12.347853,-3.74178 z"
       id="path5105"
       inkscape:connector-curvature="0" />
    <path
       style="fill:#000000;fill-rule:evenodd;stroke:#000000;stroke-width:0.26458332px;stroke-linecap:butt;stroke-linejoin:miter;stroke-opacity:1"
       d="m 37.791911,225.5321 c 0,0 6.735191,16.46381 4.490127,22.45064 -2.245064,5.98684 2.245064,11.5995 -0.748355,14.21874 -2.993417,2.61924 -10.102787,4.49013 -13.470382,3.74178 -3.367597,-0.74836 3.741772,4.11595 3.741772,4.11595 0,0 30.308364,-10.47697 32.553428,-10.47697 2.245063,0 4.115951,10.10279 4.115951,10.10279 l 1.122531,0.74836 c 0,0 2.245064,-1.49672 2.619243,-12.34786 0.374176,-10.85114 2.993416,-32.17925 2.993416,-32.17925 0,0 -1.122531,-4.49013 -4.864303,-5.98683 -3.741775,-1.49672 -11.973676,1.4967 -11.973676,1.4967 l 1.122534,4.49013 c 0,0 4.115948,-4.11595 8.606078,-3.74177 4.490127,0.37418 0,34.79849 0,34.79849 l -23.573173,4.49013 c 0,0 2.245063,-29.93419 -1.122532,-33.67596 -3.367596,-3.74177 -5.612659,-2.24507 -5.612659,-2.24507 z"
       id="path5107"
       inkscape:connector-curvature="0" />
    <path
       style="fill:#000000;fill-rule:evenodd;stroke:#000000;stroke-width:0.26458332px;stroke-linecap:butt;stroke-linejoin:miter;stroke-opacity:1"
       d="m 51.262295,233.76401 c 0,0 -1.122532,5.61266 1.122532,5.23848 2.245064,-0.37418 7.10937,-0.37418 7.483546,-2.99342 0.374177,-2.61924 0.374177,-2.24506 0.374177,-2.24506 0,0 -6.735191,-1.87089 -8.980255,0 z"
       id="path5109"
       inkscape:connector-curvature="0" />
    <path
       style="fill:#000000;fill-rule:evenodd;stroke:#000000;stroke-width:0.26458332px;stroke-linecap:butt;stroke-linejoin:miter;stroke-opacity:1"
       d="m 57.997486,244.61515 1.870887,2.61924 c 0,0 -8.231901,8.2319 -13.096208,6.73519 -4.864303,-1.49671 9.354434,-6.36101 11.225321,-9.35443 z"
       id="path5111"
       inkscape:connector-curvature="0" />
    <path
       style="fill:#000000;fill-rule:evenodd;stroke:#000000;stroke-width:0.26458332px;stroke-linecap:butt;stroke-linejoin:miter;stroke-opacity:1"
       d="m 12.722029,281.6587 c 0,0 0.374177,10.47697 3.367596,10.85115 2.993419,0.37417 4.864306,-5.61266 4.864306,-5.61266 0,0 -6.361015,-5.98684 -8.231902,-5.23849 z"
       id="path5113"
       inkscape:connector-curvature="0" />
    <path
       style="fill:#000000;fill-rule:evenodd;stroke:#000000;stroke-width:0.26458332px;stroke-linecap:butt;stroke-linejoin:miter;stroke-opacity:1"
       d="m 39.662798,277.16858 c 0,0 2.61924,10.10278 6.735191,8.60607 4.115951,-1.4967 1.496711,-6.36101 4.115951,-5.61265 2.61924,0.74835 -10.851142,-2.99342 -10.851142,-2.99342 z"
       id="path5115"
       inkscape:connector-curvature="0" />
    <path
       style="fill:#000000;fill-rule:evenodd;stroke:#000000;stroke-width:0.26458332px;stroke-linecap:butt;stroke-linejoin:miter;stroke-opacity:1"
       d="m 57.997486,274.92351 c 0,0 11.599497,11.5995 14.21874,10.10279 2.61924,-1.49671 2.245064,-5.61266 2.245064,-5.61266 0,0 -14.967093,-5.61266 -16.463804,-4.49013 z"
       id="path5117"
       inkscape:connector-curvature="0" />
    <path
       style="fill:#000000;fill-rule:evenodd;stroke:#000000;stroke-width:0.26458332px;stroke-linecap:butt;stroke-linejoin:miter;stroke-opacity:1"
       d="m 94.292689,273.05263 c 0,0 12.722031,13.84456 15.341271,13.0962 2.61924,-0.74835 3.74177,-9.35443 -2.61924,-10.47696 -6.36102,-1.12253 -12.722031,-2.61924 -12.722031,-2.61924 z"
       id="path5119"
       inkscape:connector-curvature="0" />
  </g>
</svg>
