<?xml version="1.0" encoding="UTF-8" standalone="no"?>
<!-- Created with Inkscape (http://www.inkscape.org/) -->

<svg
   xmlns:dc="http://purl.org/dc/elements/1.1/"
   xmlns:cc="http://creativecommons.org/ns#"
   xmlns:rdf="http://www.w3.org/1999/02/22-rdf-syntax-ns#"
   xmlns:svg="http://www.w3.org/2000/svg"
   xmlns="http://www.w3.org/2000/svg"
   xmlns:sodipodi="http://sodipodi.sourceforge.net/DTD/sodipodi-0.dtd"
   xmlns:inkscape="http://www.inkscape.org/namespaces/inkscape"
   width="512"
   height="512"
   viewBox="0 0 135.46666 135.46667"
   version="1.1"
   id="svg8"
   inkscape:version="0.92.2 (5c3e80d, 2017-08-06)"
   sodipodi:docname="U+7B49.svg">
  <defs
     id="defs2" />
  <sodipodi:namedview
     id="base"
     pagecolor="#ffffff"
     bordercolor="#666666"
     borderopacity="1.0"
     inkscape:pageopacity="0.0"
     inkscape:pageshadow="2"
     inkscape:zoom="1"
     inkscape:cx="184.40112"
     inkscape:cy="361.32525"
     inkscape:document-units="px"
     inkscape:current-layer="layer1"
     showgrid="false"
     units="px"
     inkscape:window-width="1920"
     inkscape:window-height="1003"
     inkscape:window-x="-9"
     inkscape:window-y="-9"
     inkscape:window-maximized="1" />
  <metadata
     id="metadata5">
    <rdf:RDF>
      <cc:Work
         rdf:about="">
        <dc:format>image/svg+xml</dc:format>
        <dc:type
           rdf:resource="http://purl.org/dc/dcmitype/StillImage" />
        <dc:title></dc:title>
      </cc:Work>
    </rdf:RDF>
  </metadata>
  <g
     inkscape:label="圖層 1"
     inkscape:groupmode="layer"
     id="layer1"
     transform="translate(0,-161.53331)">
    <path
       style="fill:#000000;fill-rule:evenodd;stroke:#000000;stroke-width:0.26458332px;stroke-linecap:butt;stroke-linejoin:miter;stroke-opacity:1"
       d="m 34.985581,173.33437 c 0,0 5.799749,12.53494 -1.683798,16.27671 -7.483547,3.74177 -9.167345,4.11595 -9.167345,4.11595 0,0 -2.993419,5.61266 -0.187089,5.98684 2.80633,0.37418 13.844562,-9.16735 15.902536,-13.09621 2.057977,-3.92886 3.741774,-15.15418 -4.864304,-13.28329 z"
       id="path5205"
       inkscape:connector-curvature="0" />
    <path
       style="fill:#000000;fill-rule:evenodd;stroke:#000000;stroke-width:0.26458332px;stroke-linecap:butt;stroke-linejoin:miter;stroke-opacity:1"
       d="m 45.649633,180.81791 11.038232,-2.99342 3.367598,2.43216 c 0,0 -10.289879,5.23848 -11.973676,4.49013 -1.683798,-0.74836 -3.741772,-3.3676 -2.432154,-3.92887 z"
       id="path5207"
       inkscape:connector-curvature="0" />
    <path
       style="fill:#000000;fill-rule:evenodd;stroke:#000000;stroke-width:0.26458332px;stroke-linecap:butt;stroke-linejoin:miter;stroke-opacity:1"
       d="m 45.836723,191.85614 c 0,0 -2.61924,6.7352 1.309621,8.23191 3.928862,1.4967 3.554685,-4.86431 3.554685,-4.86431 0,0 -2.619242,-3.74177 -4.864306,-3.3676 z"
       id="path5209"
       inkscape:connector-curvature="0" />
    <path
       style="fill:#000000;fill-rule:evenodd;stroke:#000000;stroke-width:0.26458332px;stroke-linecap:butt;stroke-linejoin:miter;stroke-opacity:1"
       d="m 85.499521,176.32779 c 0,0 0.561266,9.54152 -3.367595,11.03823 -3.928864,1.49671 -11.412411,7.10937 -11.412411,7.10937 0,0 1.122532,3.36759 2.993419,3.1805 1.870888,-0.18709 13.470385,-7.29645 13.844561,-8.41899 0.374179,-1.12253 3.741775,-14.96709 -2.057974,-12.90911 z"
       id="path5211"
       inkscape:connector-curvature="0" />
    <path
       style="fill:#000000;fill-rule:evenodd;stroke:#000000;stroke-width:0.26458332px;stroke-linecap:butt;stroke-linejoin:miter;stroke-opacity:1"
       d="m 94.479776,183.99842 11.599494,-1.6838 3.55469,3.55469 c 0,0 -11.973676,3.74177 -12.722031,3.55468 -0.748356,-0.18709 -3.928862,-4.8643 -2.432153,-5.42557 z"
       id="path5213"
       inkscape:connector-curvature="0" />
    <path
       style="fill:#000000;fill-rule:evenodd;stroke:#000000;stroke-width:0.26458332px;stroke-linecap:butt;stroke-linejoin:miter;stroke-opacity:1"
       d="m 97.660284,192.41741 c 0,0 -3.180508,6.36101 -1.683798,7.67064 1.496709,1.30962 5.425574,0.18709 5.425574,0.18709 0,0 1.12253,-4.49013 0.18709,-5.0514 -0.93545,-0.56127 -1.683802,-2.99342 -3.928866,-2.80633 z"
       id="path5215"
       inkscape:connector-curvature="0" />
    <path
       style="fill:#000000;fill-rule:evenodd;stroke:#000000;stroke-width:0.26458332px;stroke-linecap:butt;stroke-linejoin:miter;stroke-opacity:1"
       d="m 62.309374,201.08852 c 0,0 -1.322916,19.84375 -2.38125,20.37291 -1.058333,0.52917 -52.1229158,9.525 -53.1812491,9.26042 -1.0583333,-0.26458 0.2645833,7.14375 4.8947921,8.20208 4.630208,1.05834 3.968749,-5.68854 15.610416,-7.67291 11.641667,-1.98438 46.698958,-7.67292 46.698958,-7.67292 l 33.734379,-3.83646 c 0,0 2.38125,-4.7625 0.66145,-4.89479 -1.71979,-0.13229 -43.391662,8.73125 -44.317704,7.67292 -0.926042,-1.05834 5.291666,-12.43542 4.101041,-13.62604 -1.190625,-1.19063 -3.571874,-7.9375 -5.820833,-7.80521 z"
       id="path5217"
       inkscape:connector-curvature="0" />
    <path
       style="fill:#000000;fill-rule:evenodd;stroke:#000000;stroke-width:0.26458332px;stroke-linecap:butt;stroke-linejoin:miter;stroke-opacity:1"
       d="m 41.936458,212.59789 c 0,0 10.715625,0.39688 16.536458,-2.24896 5.820833,-2.64583 27.252083,-6.61458 27.252083,-6.61458 0,0 2.513542,3.57188 0.926042,4.10104 -1.5875,0.52917 -24.473958,4.89479 -25.929167,5.55625 -1.455208,0.66146 -14.419791,5.55625 -14.419791,5.55625 0,0 -6.746875,-3.57187 -4.365625,-6.35 z"
       id="path5219"
       inkscape:connector-curvature="0" />
    <path
       style="fill:#000000;fill-rule:evenodd;stroke:#000000;stroke-width:0.26458332px;stroke-linecap:butt;stroke-linejoin:miter;stroke-opacity:1"
       d="m 27.516666,239.18852 6.085417,1.98437 c 0,0 55.165624,-8.20208 56.091666,-8.73125 0.926042,-0.52916 3.571875,2.77813 2.116667,3.175 -1.455209,0.39688 -52.652083,6.61459 -55.5625,9.12813 -2.910416,2.51354 -5.688541,3.57187 -5.688541,3.57187 0,0 -5.820834,-8.86354 -3.042709,-9.12812 z"
       id="path5221"
       inkscape:connector-curvature="0" />
    <path
       style="fill:#000000;fill-rule:evenodd;stroke:#000000;stroke-width:0.26458332px;stroke-linecap:butt;stroke-linejoin:miter;stroke-opacity:1"
       d="m 69.982291,230.32498 c 0,0 7.408333,8.86354 6.085416,19.18229 -1.322916,10.31875 -2.910416,22.09271 -3.704166,22.35729 -0.79375,0.26458 -4.630209,-0.13229 -6.879167,-1.19063 -2.248958,-1.05833 -0.132291,3.04271 1.455208,4.23334 1.5875,1.19062 3.042709,8.99583 4.497917,8.46666 1.455208,-0.52916 6.879167,-1.5875 6.217708,-3.70416 -0.661458,-2.11667 -1.455208,-8.99584 -0.926041,-10.05417 0.529166,-1.05833 3.307291,-31.61771 2.778125,-31.75 -0.529167,-0.13229 -0.661459,-7.54062 -1.455209,-7.54062 -0.79375,0 -7.672916,-4.63021 -8.069791,0 z"
       id="path5223"
       inkscape:connector-curvature="0" />
    <path
       style="fill:#000000;fill-rule:evenodd;stroke:#000000;stroke-width:0.26458332px;stroke-linecap:butt;stroke-linejoin:miter;stroke-opacity:1"
       d="m 46.566666,248.71352 c 0,0 7.408333,4.10104 7.14375,6.21771 -0.264583,2.11666 -0.79375,5.82083 -2.116667,4.89479 -1.322916,-0.92604 -10.980208,-7.67292 -5.027083,-11.1125 z"
       id="path5225"
       inkscape:connector-curvature="0" />
  </g>
</svg>
