<?xml version="1.0" encoding="UTF-8" standalone="no"?>
<!-- Created with Inkscape (http://www.inkscape.org/) -->

<svg
   xmlns:dc="http://purl.org/dc/elements/1.1/"
   xmlns:cc="http://creativecommons.org/ns#"
   xmlns:rdf="http://www.w3.org/1999/02/22-rdf-syntax-ns#"
   xmlns:svg="http://www.w3.org/2000/svg"
   xmlns="http://www.w3.org/2000/svg"
   xmlns:sodipodi="http://sodipodi.sourceforge.net/DTD/sodipodi-0.dtd"
   xmlns:inkscape="http://www.inkscape.org/namespaces/inkscape"
   width="512"
   height="512"
   viewBox="0 0 135.46666 135.46667"
   version="1.1"
   id="svg8"
   inkscape:version="0.92.2 (5c3e80d, 2017-08-06)"
   sodipodi:docname="U+805E.svg">
  <defs
     id="defs2" />
  <sodipodi:namedview
     id="base"
     pagecolor="#ffffff"
     bordercolor="#666666"
     borderopacity="1.0"
     inkscape:pageopacity="0.0"
     inkscape:pageshadow="2"
     inkscape:zoom="0.70710678"
     inkscape:cx="89.911946"
     inkscape:cy="249.19326"
     inkscape:document-units="px"
     inkscape:current-layer="layer1"
     showgrid="false"
     units="px"
     inkscape:window-width="1920"
     inkscape:window-height="1003"
     inkscape:window-x="-9"
     inkscape:window-y="-9"
     inkscape:window-maximized="1" />
  <metadata
     id="metadata5">
    <rdf:RDF>
      <cc:Work
         rdf:about="">
        <dc:format>image/svg+xml</dc:format>
        <dc:type
           rdf:resource="http://purl.org/dc/dcmitype/StillImage" />
        <dc:title></dc:title>
      </cc:Work>
    </rdf:RDF>
  </metadata>
  <g
     inkscape:label="圖層 1"
     inkscape:groupmode="layer"
     id="layer1"
     transform="translate(0,-161.53331)">
    <path
       style="fill:#1a1a1a;fill-rule:evenodd;stroke:#000000;stroke-width:0.26458332px;stroke-linecap:butt;stroke-linejoin:miter;stroke-opacity:1"
       d="m 26.56659,188.86273 c 0,0 12.722029,0 15.341272,-2.99342 2.61924,-2.99342 5.612659,4.49013 7.483546,5.98683 1.870887,1.49671 -2.993419,0.37418 -2.619243,3.3676 0.374179,2.99342 -4.115948,13.84456 -2.245063,14.59292 1.870887,0.74835 9.728612,-5.23849 9.728612,-5.23849 0,0 -5.986838,5.23849 -7.857725,7.48355 -1.870887,2.24506 -7.857723,6.73519 -10.851142,8.98026 -2.993419,2.24506 -6.735193,-4.86431 -5.612662,-5.23849 1.122535,-0.37417 11.599498,-1.49671 11.599498,-4.11595 0,-2.61924 -2.61924,-6.36101 -2.61924,-6.36101 0,0 -2.993419,2.99342 -5.61266,3.36759 -2.619242,0.37418 -4.864306,-7.10937 -2.619242,-7.48354 2.245063,-0.37418 7.10937,1.49671 7.483546,-0.74836 0.374179,-2.24506 3.367596,-7.48354 -1.122532,-7.48354 -4.490127,0 -10.476965,1.12253 -10.476965,1.12253 0,0 -1.122531,-3.74177 0,-5.23848 z"
       id="path5132"
       inkscape:connector-curvature="0" />
    <path
       style="fill:#1a1a1a;fill-rule:evenodd;stroke:#000000;stroke-width:0.26458332px;stroke-linecap:butt;stroke-linejoin:miter;stroke-opacity:1"
       d="m 62.861792,188.11437 c 0,0 7.109368,23.57317 5.986836,25.81824 -1.122532,2.24506 3.741774,1.87088 5.986838,0 2.245064,-1.87089 10.102789,-1.87089 10.102789,-1.87089 l -2.245064,-2.61924 -11.22532,1.87089 c 0,0 3.741771,-28.0633 -8.606079,-23.199 z"
       id="path5134"
       inkscape:connector-curvature="0" />
    <path
       style="fill:#1a1a1a;fill-rule:evenodd;stroke:#000000;stroke-width:0.26458332px;stroke-linecap:butt;stroke-linejoin:miter;stroke-opacity:1"
       d="m 75.583822,200.08805 8.980254,-1.87089 c 0,0 3.741775,2.24506 2.619243,3.36759 -1.122532,1.12254 -11.599497,2.24507 -11.599497,2.24507 0,0 -2.619243,-2.61924 0,-3.74177 z"
       id="path5136"
       inkscape:connector-curvature="0" />
    <path
       style="fill:#1a1a1a;fill-rule:evenodd;stroke:#000000;stroke-width:0.26458332px;stroke-linecap:butt;stroke-linejoin:miter;stroke-opacity:1"
       d="m 74.087111,184.74678 c 0,0 7.857725,1.87088 19.083046,-5.61266 11.225323,-7.48355 12.722033,11.97367 7.483543,14.96709 -5.238479,2.99342 -1.496708,75.20964 2.61924,81.94483 4.11595,6.7352 -3.367592,11.22532 -5.612656,14.59292 -2.245063,3.3676 -13.096208,-23.19899 -13.096208,-23.19899 l 11.973676,5.98683 c 0,0 -4.49013,-86.80914 -1.122531,-86.80914 3.367595,0 -9.728613,4.11595 -14.21874,4.86431 -4.490128,0.74835 -8.606079,-6.73519 -7.10937,-6.73519 z"
       id="path5138"
       inkscape:connector-curvature="0" />
    <path
       style="fill:#1a1a1a;fill-rule:evenodd;stroke:#000000;stroke-width:0.26458332px;stroke-linecap:butt;stroke-linejoin:miter;stroke-opacity:1"
       d="m 12.347852,204.57817 c 0,0 -0.748355,5.61267 4.864305,7.85773 5.61266,2.24506 -2.245064,60.24255 -4.864305,60.24255 -2.6192415,0 4.864305,10.47696 7.109369,9.35443 2.245064,-1.12253 -1.122532,-47.14634 1.870887,-50.51394 2.993419,-3.36759 2.993419,-17.58633 -1.49671,-20.57975 -4.490127,-2.99342 -1.496709,-8.60608 -7.483546,-6.36102 z"
       id="path5140"
       inkscape:connector-curvature="0" />
    <path
       style="fill:#1a1a1a;fill-rule:evenodd;stroke:#000000;stroke-width:0.26458332px;stroke-linecap:butt;stroke-linejoin:miter;stroke-opacity:1"
       d="m 31.805073,228.15135 c 0,0 29.934188,-2.61925 38.166087,-7.10937 8.231902,-4.49013 8.231902,5.61266 8.231902,5.61266 0,0 -34.424313,1.87088 -40.785328,7.85772 -6.361014,5.98684 -5.612661,-6.36101 -5.612661,-6.36101 z"
       id="path5142"
       inkscape:connector-curvature="0" />
    <path
       style="fill:#1a1a1a;fill-rule:evenodd;stroke:#000000;stroke-width:0.26458332px;stroke-linecap:butt;stroke-linejoin:miter;stroke-opacity:1"
       d="m 34.798492,237.87996 c 0,0 7.483546,16.08962 4.864306,23.57317 -2.619243,7.48354 -6.735194,8.2319 2.993419,10.10279 9.72861,1.87088 14.592914,-14.9671 22.450639,-18.70887 7.857723,-3.74177 -22.824818,11.22532 -22.824818,11.22532 0,0 2.619243,-22.45064 0.748355,-23.19899 -1.870887,-0.74836 -6.735193,-4.11595 -8.231901,-2.99342 z"
       id="path5144"
       inkscape:connector-curvature="0" />
    <path
       style="fill:#1a1a1a;fill-rule:evenodd;stroke:#000000;stroke-width:0.26458332px;stroke-linecap:butt;stroke-linejoin:miter;stroke-opacity:1"
       d="m 65.481032,230.02223 c 0,0 1.870888,39.6628 -1.122531,44.90128 -2.993419,5.23849 -5.612659,6.73519 0.374179,8.60608 5.986835,1.87089 4.115948,-2.61924 3.741772,-8.60608 -0.374177,-5.98684 1.870887,-40.41115 1.870887,-40.41115 0,0 -2.245064,-5.98684 -4.864307,-4.49013 z"
       id="path5146"
       inkscape:connector-curvature="0" />
    <path
       style="fill:#1a1a1a;fill-rule:evenodd;stroke:#000000;stroke-width:0.26458332px;stroke-linecap:butt;stroke-linejoin:miter;stroke-opacity:1"
       d="m 47.8947,236.75743 10.476963,-2.99342 -5.61266,7.85772 c 0,0 -8.606078,-2.24506 -4.864303,-4.8643 z"
       id="path5148"
       inkscape:connector-curvature="0" />
    <path
       style="fill:#1a1a1a;fill-rule:evenodd;stroke:#000000;stroke-width:0.26458332px;stroke-linecap:butt;stroke-linejoin:miter;stroke-opacity:1"
       d="m 48.643053,250.22781 10.476965,-3.3676 3.367595,0.74836 -10.476965,8.2319 c 0,0 -6.735191,-4.49013 -3.367595,-5.61266 z"
       id="path5150"
       inkscape:connector-curvature="0" />
  </g>
</svg>
