<?xml version="1.0" encoding="UTF-8" standalone="no"?>
<!-- Created with Inkscape (http://www.inkscape.org/) -->

<svg
   xmlns:dc="http://purl.org/dc/elements/1.1/"
   xmlns:cc="http://creativecommons.org/ns#"
   xmlns:rdf="http://www.w3.org/1999/02/22-rdf-syntax-ns#"
   xmlns:svg="http://www.w3.org/2000/svg"
   xmlns="http://www.w3.org/2000/svg"
   xmlns:sodipodi="http://sodipodi.sourceforge.net/DTD/sodipodi-0.dtd"
   xmlns:inkscape="http://www.inkscape.org/namespaces/inkscape"
   width="512"
   height="512"
   viewBox="0 0 512 512"
   version="1.1"
   id="svg8"
   inkscape:version="0.92.2 (5c3e80d, 2017-08-06)"
   sodipodi:docname="U+8B02.svg">
  <defs
     id="defs2" />
  <sodipodi:namedview
     id="base"
     pagecolor="#ffffff"
     bordercolor="#666666"
     borderopacity="1.0"
     inkscape:pageopacity="0.0"
     inkscape:pageshadow="2"
     inkscape:zoom="1.4142136"
     inkscape:cx="194.19138"
     inkscape:cy="269.3724"
     inkscape:document-units="px"
     inkscape:current-layer="layer1"
     showgrid="false"
     units="px"
     inkscape:window-width="1920"
     inkscape:window-height="1003"
     inkscape:window-x="-9"
     inkscape:window-y="-9"
     inkscape:window-maximized="1" />
  <metadata
     id="metadata5">
    <rdf:RDF>
      <cc:Work
         rdf:about="">
        <dc:format>image/svg+xml</dc:format>
        <dc:type
           rdf:resource="http://purl.org/dc/dcmitype/StillImage" />
        <dc:title></dc:title>
      </cc:Work>
    </rdf:RDF>
  </metadata>
  <g
     inkscape:label="圖層 1"
     inkscape:groupmode="layer"
     id="layer1"
     transform="translate(0,-161.53331)">
    <path
       style="fill:#000000;fill-rule:evenodd;stroke:#000000;stroke-width:1px;stroke-linecap:butt;stroke-linejoin:miter;stroke-opacity:1"
       d="m 160.51324,229.47025 c 0,0 41.01219,34.64824 23.33452,56.56855 -17.67767,21.92031 -103.237587,25.45584 -109.601548,17.67766 -6.363961,-7.77817 -24.748738,-1.41421 -13.435029,11.31371 11.313708,12.72793 28.991378,24.04163 28.991378,24.04163 0,0 111.015769,-43.13351 130.107649,-37.47666 19.09188,5.65686 41.7193,-11.3137 28.99138,-16.97056 -12.72793,-5.65685 -48.79037,7.07107 -48.79037,7.07107 0,0 14.84924,-38.89087 19.09188,-35.35534 4.24264,3.53554 11.31371,-31.1127 -58.68986,-26.87006 z"
       id="path938"
       inkscape:connector-curvature="0" />
    <path
       style="fill:#000000;fill-rule:evenodd;stroke:#000000;stroke-width:1px;stroke-linecap:butt;stroke-linejoin:miter;stroke-opacity:1"
       d="m 140.00714,360.28501 c 0,0 60.10408,-15.55635 68.58936,-9.8995 8.48528,5.65686 -48.08326,33.23402 -50.91169,33.23402 -2.82843,0 -28.28427,-13.43503 -17.67767,-23.33452 z"
       id="path940"
       inkscape:connector-curvature="0" />
    <path
       style="fill:#000000;fill-rule:evenodd;stroke:#000000;stroke-width:1px;stroke-linecap:butt;stroke-linejoin:miter;stroke-opacity:1"
       d="m 125.1579,411.1967 c 0,0 62.2254,3.53553 78.48885,-12.02082 16.26346,-15.55635 28.99138,12.72792 -12.72792,23.33452 -41.7193,10.60661 -62.9325,23.33453 -65.76093,-11.3137 z"
       id="path942"
       inkscape:connector-curvature="0" />
    <path
       style="fill:#000000;fill-rule:evenodd;stroke:#000000;stroke-width:1px;stroke-linecap:butt;stroke-linejoin:miter;stroke-opacity:1"
       d="m 97.580735,469.88656 c 0,0 43.133515,97.58073 43.133515,104.6518 0,7.07107 0,14.14214 4.94975,8.48528 4.94974,-5.65685 9.89949,-33.23402 7.77817,-36.06244 -2.12132,-2.82843 54.44722,-13.43503 54.44722,-13.43503 0,0 0,-6.36396 -5.65685,-7.77818 -5.65686,-1.41421 31.8198,-54.44722 43.13351,-53.03301 11.31371,1.41422 -17.67767,-33.23401 -29.69848,-30.40559 -12.02082,2.82843 -4.24264,10.60661 -13.43503,11.31371 -9.19239,0.70711 -48.08326,21.21321 -54.44722,16.97056 -6.36396,-4.24264 7.07106,19.79899 16.97056,19.79899 9.89949,0 34.64823,-11.3137 33.23402,-7.07106 -1.41422,4.24264 -16.26346,36.76955 -16.26346,36.76955 l -33.23402,7.07107 c 0,0 -13.43503,-31.81981 -10.6066,-35.35534 2.82843,-3.53554 -36.06244,-28.99138 -40.305085,-21.92031 z"
       id="path944"
       inkscape:connector-curvature="0" />
    <path
       style="fill:#000000;fill-rule:evenodd;stroke:#000000;stroke-width:1px;stroke-linecap:butt;stroke-linejoin:miter;stroke-opacity:1"
       d="m 263.04372,264.11849 c 0,0 30.40559,39.59797 32.52691,50.91168 2.12132,11.31371 8.48528,44.54773 10.60661,47.37616 2.12132,2.82842 -36.06245,14.14213 -39.59798,14.84924 -3.53554,0.70711 8.48528,26.16295 19.09188,22.62742 10.6066,-3.53554 75.66042,-31.81981 87.68124,-29.69849 12.02081,2.12132 96.16652,-4.94975 96.16652,-4.94975 0,0 -14.14213,-11.3137 -16.26346,-11.3137 -2.12132,0 24.04164,-80.61018 33.23402,-80.61018 9.19239,0 -7.77817,-33.94112 -15.55635,-32.52691 -7.77817,1.41421 -148.49242,11.31371 -153.44217,9.19239 -4.94974,-2.12132 7.77818,31.1127 12.72793,31.1127 4.94974,0 29.69848,-14.84924 37.47665,-12.72792 7.77818,2.12132 34.64824,-6.36397 38.89088,-6.36397 4.24264,0 51.61879,-9.19238 51.61879,-9.19238 0,0 -4.24264,45.96194 -12.02081,56.56854 -7.77818,10.6066 -0.70711,24.04163 -2.82843,26.87006 -2.12132,2.82842 7.77817,19.79899 -8.48528,19.09188 -16.26346,-0.70711 -118.08683,13.43503 -118.08683,7.07107 0,-6.36396 -7.77818,-85.55992 -7.77818,-85.55992 0,0 -41.7193,-14.84925 -45.96194,-12.72792 z"
       id="path946"
       inkscape:connector-curvature="0" />
    <path
       style="fill:#000000;fill-rule:evenodd;stroke:#000000;stroke-width:1px;stroke-linecap:butt;stroke-linejoin:miter;stroke-opacity:1"
       d="m 366.98842,267.65402 c 0,0 14.84924,26.87006 2.82843,31.8198 -12.02082,4.94975 -42.42641,14.84925 -42.42641,14.84925 0,0 -1.41422,16.26345 8.48528,16.26345 9.89949,0 32.52691,-11.31371 31.1127,-2.12132 -1.41422,9.19239 -6.36396,31.1127 -6.36396,31.1127 0,0 17.67767,0.70711 21.2132,-10.6066 3.53553,-11.31371 14.14214,-39.59798 14.14214,-39.59798 l 26.87005,-9.19239 c 0,0 0.70711,-14.14213 -14.14213,-10.6066 -14.84924,3.53553 -18.38478,1.41421 -18.38478,1.41421 0,0 5.65686,-29.69848 -23.33452,-23.33452 z"
       id="path948"
       inkscape:connector-curvature="0" />
    <path
       style="fill:#000000;fill-rule:evenodd;stroke:#000000;stroke-width:1px;stroke-linecap:butt;stroke-linejoin:miter;stroke-opacity:1"
       d="m 306.17724,414.73223 c 0,0 3.53553,127.27922 -0.70711,135.7645 -4.24264,8.48528 2.82843,28.28427 13.43503,28.28427 10.6066,0 4.24264,-50.91169 1.41421,-55.15433 -2.82843,-4.24264 50.20458,9.19239 57.27565,0.70711 7.07107,-8.48528 -0.70711,-28.28427 -20.5061,-21.2132 -19.79899,7.07106 -33.23402,10.6066 -33.23402,10.6066 0,0 2.82843,-77.07464 7.07107,-77.07464 4.24264,0 -16.26345,-24.74874 -24.74873,-21.92031 z"
       id="path950"
       inkscape:connector-curvature="0" />
    <path
       style="fill:#000000;fill-rule:evenodd;stroke:#000000;stroke-width:1px;stroke-linecap:butt;stroke-linejoin:miter;stroke-opacity:1"
       d="m 342.94679,412.61091 c 0,0 54.44722,-23.33452 63.63961,-15.55635 9.19239,7.77817 27.57716,23.33452 24.04163,45.25483 -3.53554,21.92031 -15.55635,111.72287 -9.19239,123.74369 6.36396,12.02081 -4.94975,51.61879 -11.31371,51.61879 -6.36396,0 -26.16295,3.53554 -22.62742,-6.36396 3.53554,-9.89949 -6.36396,-39.59798 -9.89949,-41.7193 -3.53553,-2.12132 12.72792,-9.89949 20.5061,-5.65685 7.77817,4.24264 19.09188,-137.88582 11.3137,-142.83557 -7.77817,-4.94975 -46.66904,-4.24264 -60.81118,2.12132 -14.14213,6.36396 -9.19239,-4.94975 -5.65685,-10.6066 z"
       id="path952"
       inkscape:connector-curvature="0" />
    <path
       style="fill:#000000;fill-rule:evenodd;stroke:#000000;stroke-width:1px;stroke-linecap:butt;stroke-linejoin:miter;stroke-opacity:1"
       d="m 346.48232,455.03732 c 0,0 41.01219,-3.53554 31.1127,8.48528 -9.8995,12.02081 -53.03301,21.92031 -31.1127,-8.48528 z"
       id="path954"
       inkscape:connector-curvature="0" />
  </g>
</svg>
