<?xml version="1.0" encoding="UTF-8" standalone="no"?>
<!-- Created with Inkscape (http://www.inkscape.org/) -->

<svg
   xmlns:dc="http://purl.org/dc/elements/1.1/"
   xmlns:cc="http://creativecommons.org/ns#"
   xmlns:rdf="http://www.w3.org/1999/02/22-rdf-syntax-ns#"
   xmlns:svg="http://www.w3.org/2000/svg"
   xmlns="http://www.w3.org/2000/svg"
   xmlns:sodipodi="http://sodipodi.sourceforge.net/DTD/sodipodi-0.dtd"
   xmlns:inkscape="http://www.inkscape.org/namespaces/inkscape"
   width="512"
   height="512"
   viewBox="0 0 135.46666 135.46667"
   version="1.1"
   id="svg8"
   inkscape:version="0.92.2 (5c3e80d, 2017-08-06)"
   sodipodi:docname="U+964B.svg">
  <defs
     id="defs2" />
  <sodipodi:namedview
     id="base"
     pagecolor="#ffffff"
     bordercolor="#666666"
     borderopacity="1.0"
     inkscape:pageopacity="0.0"
     inkscape:pageshadow="2"
     inkscape:zoom="1.4142136"
     inkscape:cx="169.45676"
     inkscape:cy="257.03562"
     inkscape:document-units="px"
     inkscape:current-layer="layer1"
     showgrid="false"
     units="px"
     inkscape:window-width="1920"
     inkscape:window-height="1003"
     inkscape:window-x="-9"
     inkscape:window-y="-9"
     inkscape:window-maximized="1" />
  <metadata
     id="metadata5">
    <rdf:RDF>
      <cc:Work
         rdf:about="">
        <dc:format>image/svg+xml</dc:format>
        <dc:type
           rdf:resource="http://purl.org/dc/dcmitype/StillImage" />
        <dc:title></dc:title>
      </cc:Work>
    </rdf:RDF>
  </metadata>
  <g
     inkscape:label="圖層 1"
     inkscape:groupmode="layer"
     id="layer1"
     transform="translate(0,-161.53331)">
    <path
       style="fill:#000000;fill-rule:evenodd;stroke:#000000;stroke-width:0.26458332px;stroke-linecap:butt;stroke-linejoin:miter;stroke-opacity:1"
       d="m 14.218739,194.2883 c 0,0 24.508614,-1.6838 26.192412,-7.85773 1.6838,-6.17392 7.10937,8.60608 7.10937,8.60608 l -12.722029,7.67064 c 0,0 4.864306,-8.60608 2.806329,-9.16735 -2.057974,-0.56126 -16.837979,9.16735 -18.334688,7.85773 -1.49671,-1.30962 -5.051394,-7.10937 -5.051394,-7.10937 z"
       id="path5068"
       inkscape:connector-curvature="0" />
    <path
       style="fill:#000000;fill-rule:evenodd;stroke:#000000;stroke-width:0.26458332px;stroke-linecap:butt;stroke-linejoin:miter;stroke-opacity:1"
       d="m 13.470384,207.3845 c 0,0 5.986837,0.18709 5.799749,15.34127 -0.187089,15.15419 -2.432153,46.39799 -2.432153,46.39799 l 4.677217,7.10937 c 0,0 2.432152,-3.55468 0.748354,-7.48354 -1.683798,-3.92887 -2.432152,-41.72078 -0.187088,-49.76559 2.245064,-8.04481 -3.554685,-15.90253 -8.606079,-11.5995 z"
       id="path5070"
       inkscape:connector-curvature="0" />
    <path
       style="fill:#000000;fill-rule:evenodd;stroke:#000000;stroke-width:0.26458332px;stroke-linecap:butt;stroke-linejoin:miter;stroke-opacity:1"
       d="m 67.35192,192.41741 c 0,0 18.895954,0.18709 24.695702,-3.74177 5.799752,-3.92886 14.218738,1.49671 7.857726,3.1805 -6.361015,1.6838 -31.05672,6.92228 -31.243807,5.98684 -0.187089,-0.93544 -4.30304,-1.49671 -1.309621,-5.42557 z"
       id="path5072"
       inkscape:connector-curvature="0" />
    <path
       style="fill:#000000;fill-rule:evenodd;stroke:#000000;stroke-width:0.26458332px;stroke-linecap:butt;stroke-linejoin:miter;stroke-opacity:1"
       d="m 58.745842,211.31337 c 0,0 6.73519,30.30836 5.612659,31.99216 -1.122532,1.6838 3.554685,0.74835 3.554685,0.74835 0,0 -1.683798,-21.14102 -0.561266,-21.70228 1.122532,-0.56127 -8.606078,-11.03823 -8.606078,-11.03823 z"
       id="path5074"
       inkscape:connector-curvature="0" />
    <path
       style="fill:#000000;fill-rule:evenodd;stroke:#000000;stroke-width:0.26458332px;stroke-linecap:butt;stroke-linejoin:miter;stroke-opacity:1"
       d="m 68.661541,210.93919 c 0,0 10.476965,3.18051 27.127856,-2.61924 16.650893,-5.79975 10.851143,8.41899 10.102793,11.97367 -0.74836,3.55469 -3.92887,30.30837 -7.109374,32.55343 -3.180509,2.24506 -2.245064,-10.28988 -5.425572,-11.22532 -3.180506,-0.93544 3.928861,-1.30962 3.928861,-1.30962 0,0 8.418995,-26.00533 3.367595,-26.56659 -5.051393,-0.56127 -27.689121,5.23848 -28.624563,5.05139 -0.935443,-0.18709 -6.548105,-7.10937 -3.367596,-7.85772 z"
       id="path5076"
       inkscape:connector-curvature="0" />
    <path
       style="fill:#000000;fill-rule:evenodd;stroke:#000000;stroke-width:0.26458332px;stroke-linecap:butt;stroke-linejoin:miter;stroke-opacity:1"
       d="m 76.706353,204.01691 c 0,0 4.677217,1.49671 4.115951,6.92228 -0.561266,5.42557 -3.367595,17.96051 -5.238482,17.96051 -1.870888,0 -5.051394,3.74177 -5.051394,3.74177 0,0 -2.057976,3.3676 2.993417,2.05798 5.051396,-1.30962 5.425572,-4.30304 5.425572,-4.30304 0,0 10.289876,-20.20558 8.606078,-21.14102 -1.683798,-0.93544 -2.432153,-6.17392 -7.857723,-8.41899 -5.425572,-2.24506 -3.554685,3.55468 -2.993419,3.18051 z"
       id="path5078"
       inkscape:connector-curvature="0" />
    <path
       style="fill:#000000;fill-rule:evenodd;stroke:#000000;stroke-width:0.26458332px;stroke-linecap:butt;stroke-linejoin:miter;stroke-opacity:1"
       d="m 85.499521,226.09337 c 0,0 4.303038,9.72861 7.857723,9.35443 3.554685,-0.37417 3.554685,-4.11595 1.683797,-5.98683 -1.870884,-1.87089 -9.167344,-4.11596 -9.54152,-3.3676 z"
       id="path5080"
       inkscape:connector-curvature="0" />
    <path
       style="fill:#000000;fill-rule:evenodd;stroke:#000000;stroke-width:0.26458332px;stroke-linecap:butt;stroke-linejoin:miter;stroke-opacity:1"
       d="m 46.772165,226.84173 c 0,0 -1.870884,9.16734 -0.187087,10.47696 1.683798,1.30962 2.432154,17.39925 4.677217,17.96051 2.245064,0.56127 -3.180508,3.55469 -6.361014,3.74177 -3.180509,0.18709 2.61924,7.29646 2.61924,7.29646 0,0 37.79191,-11.03823 44.90128,-9.72861 7.10937,1.30962 20.392669,2.99342 21.702289,4.49013 1.30962,1.49671 7.85772,-4.11595 2.61924,-7.29646 -5.23848,-3.1805 -15.34127,-3.1805 -23.386086,-0.56126 -8.044813,2.61924 -38.727353,4.49013 -39.662796,5.61266 -0.935445,1.12253 1.309619,-22.63773 -0.561266,-23.57318 -1.870887,-0.93544 3.367596,-2.99341 -6.361017,-8.41898 z"
       id="path5082"
       inkscape:connector-curvature="0" />
    <path
       style="fill:#000000;fill-rule:evenodd;stroke:#000000;stroke-width:0.26458332px;stroke-linecap:butt;stroke-linejoin:miter;stroke-opacity:1"
       d="m 30.308364,205.51362 c -1.683797,4.8643 -2.432153,4.8643 -1.683797,4.67721 0.748352,-0.18708 5.238482,1.49671 5.238482,1.49671 l -5.612661,10.47697 c 0,0 4.115951,7.85772 6.92228,7.85772 2.806332,0 6.548104,-5.61266 5.051396,-11.03823 -1.496711,-5.42557 -4.677217,-11.5995 -9.9157,-13.47038 z"
       id="path5084"
       inkscape:connector-curvature="0" />
  </g>
</svg>
