<?xml version="1.0" encoding="UTF-8" standalone="no"?>
<!-- Created with Inkscape (http://www.inkscape.org/) -->

<svg
   xmlns:dc="http://purl.org/dc/elements/1.1/"
   xmlns:cc="http://creativecommons.org/ns#"
   xmlns:rdf="http://www.w3.org/1999/02/22-rdf-syntax-ns#"
   xmlns:svg="http://www.w3.org/2000/svg"
   xmlns="http://www.w3.org/2000/svg"
   xmlns:sodipodi="http://sodipodi.sourceforge.net/DTD/sodipodi-0.dtd"
   xmlns:inkscape="http://www.inkscape.org/namespaces/inkscape"
   width="512"
   height="512"
   viewBox="0 0 512 512"
   version="1.1"
   id="svg8"
   inkscape:version="0.92.2 (5c3e80d, 2017-08-06)"
   sodipodi:docname="U+611A.svg">
  <defs
     id="defs2" />
  <sodipodi:namedview
     id="base"
     pagecolor="#ffffff"
     bordercolor="#666666"
     borderopacity="1.0"
     inkscape:pageopacity="0.0"
     inkscape:pageshadow="2"
     inkscape:zoom="1"
     inkscape:cx="34.314547"
     inkscape:cy="283.16751"
     inkscape:document-units="px"
     inkscape:current-layer="layer1"
     showgrid="false"
     units="px"
     inkscape:window-width="1920"
     inkscape:window-height="1003"
     inkscape:window-x="-9"
     inkscape:window-y="-9"
     inkscape:window-maximized="1" />
  <metadata
     id="metadata5">
    <rdf:RDF>
      <cc:Work
         rdf:about="">
        <dc:format>image/svg+xml</dc:format>
        <dc:type
           rdf:resource="http://purl.org/dc/dcmitype/StillImage" />
        <dc:title></dc:title>
      </cc:Work>
    </rdf:RDF>
  </metadata>
  <g
     inkscape:label="圖層 1"
     inkscape:groupmode="layer"
     id="layer1"
     transform="translate(0,-161.53331)">
    <path
       style="fill:#000000;fill-rule:evenodd;stroke:#000000;stroke-width:1px;stroke-linecap:butt;stroke-linejoin:miter;stroke-opacity:1"
       d="m 110,287.03331 c 0,0 39,26.5 38,32.5 -1,6 12,56.5 12,56.5 0,0 -17,2.5 -15,7.5 2,5 13,8.5 18.5,7 5.5,-1.5 102,-29.5 105.5,-25.5 3.5,4 7,17.5 10,14.5 3,-3 29.5,-102.5 29.5,-102.5 0,0 14,-4 14.5,-20.5 0.5,-16.5 -19.5,-31 -25,-27.5 -5.5,3.5 -30.5,16.5 -37,16.5 -6.5,0 -87,11.5 -87,11.5 0,0 -10.5,15.5 0,18 10.5,2.5 11.5,16 19,11.5 7.5,-4.5 17,-8 17,-8 0,0 62,-20.5 65,-17.5 3,3 13.5,15.5 10,27.5 -3.5,12 -7.5,57.5 -11.5,59.5 -4,2 -92.5,27.5 -99,24.5 -6.5,-3 -16.5,-56 -15,-58.5 1.5,-2.5 -43.5,-45.5 -49.5,-27 z"
       id="path967"
       inkscape:connector-curvature="0" />
    <path
       style="fill:#000000;fill-rule:evenodd;stroke:#000000;stroke-width:1px;stroke-linecap:butt;stroke-linejoin:miter;stroke-opacity:1"
       d="m 209.5,281.03331 c 0,0 9,23 3.5,28.5 -5.5,5.5 -30.5,13 -30.5,13 0,0 19,19.5 25.5,15.5 6.5,-4 -2.5,26.5 -2.5,26.5 0,0 15.5,3.5 15.5,-5 0,-8.5 1,-29 1,-29 0,0 29,-8.5 31,-8.5 2,0 15,-21 9,-19.5 -6,1.5 -37.5,11 -37.5,11 0,0 12,-17 8.5,-20 -3.5,-3 -1,-33 -23.5,-12.5 z"
       id="path969"
       inkscape:connector-curvature="0" />
    <path
       style="fill:#000000;fill-rule:evenodd;stroke:#000000;stroke-width:1px;stroke-linecap:butt;stroke-linejoin:miter;stroke-opacity:1"
       d="m 63.5,435.53331 c 0,0 19.5,6.5 29.5,2 10,-4.5 20,-0.5 20,-0.5 0,0 -2.5,-22 1,-22 3.5,0 29.5,14 29.5,14 0,0 108,-25 114,-25 6,0 77,-14.5 79,-12.5 2,2 15,-9 20,-6.5 5,2.5 38.5,17 29.5,33 -9,16 -33,82.5 -35,82.5 -2,0 -18.5,-27 -15.5,-36.5 3,-9.5 15.5,-5.5 15.5,-5.5 0,0 12.5,-53.5 10.5,-55.5 -2,-2 -29,-10 -34,-6 -5,4 -60.5,12 -60.5,12 l -64,14 c 0,0 -54,8.5 -54,10.5 0,2 0,54 -4.5,55.5 -4.5,1.5 -15,-45 -19.5,-45.5 -4.5,-0.5 -47.5,24.5 -50,22.5 -2.5,-2 -17.5,-28.5 -11.5,-30.5 z"
       id="path971"
       inkscape:connector-curvature="0" />
    <path
       style="fill:#000000;fill-rule:evenodd;stroke:#000000;stroke-width:1px;stroke-linecap:butt;stroke-linejoin:miter;stroke-opacity:1"
       d="m 206,376.03331 -7.5,75.5 c 0,0 -28,6.5 -27,9 1,2.5 -1,17.5 5,16.5 6,-1 53,-29.5 72,-27 19,2.5 42.5,12.5 44,16.5 1.5,4 15.5,-14.5 11.5,-21.5 -4,-7 -37,-36 -37,-36 0,0 -22.5,-6 -23,-0.5 -0.5,5.5 21,26.5 19.5,30 -1.5,3.5 -58,18.5 -57,12 1,-6.5 4,-37 6,-38 2,-1 10.5,-36 -6.5,-36.5 z"
       id="path973"
       inkscape:connector-curvature="0" />
    <path
       style="fill:#000000;fill-rule:evenodd;stroke:#000000;stroke-width:1px;stroke-linecap:butt;stroke-linejoin:miter;stroke-opacity:1"
       d="m 102.5,539.53331 c 0,0 -10.5,28.5 -8,31 2.5,2.5 4.5,14 8.5,13 4,-1 24.5,-13.5 17.5,-19.5 -7,-6 -12.5,-25 -18,-24.5 z"
       id="path975"
       inkscape:connector-curvature="0" />
    <path
       style="fill:#000000;fill-rule:evenodd;stroke:#000000;stroke-width:1px;stroke-linecap:butt;stroke-linejoin:miter;stroke-opacity:1"
       d="m 176,531.03331 c 0,0 34.5,43 45,47.5 10.5,4.5 98.5,27.5 98.5,27.5 l 89,-11.5 c 0,0 8,-6 -13,-16 -21,-10 -46.5,-34 -48,-34 -1.5,0 5.5,35 2.5,35 -3,0 -93.5,3 -100.5,-4.5 -7,-7.5 -74.5,-35.5 -73.5,-44 z"
       id="path977"
       inkscape:connector-curvature="0" />
    <path
       style="fill:#000000;fill-rule:evenodd;stroke:#000000;stroke-width:1px;stroke-linecap:butt;stroke-linejoin:miter;stroke-opacity:1"
       d="m 243,506.03331 c 0,0 -7,24.5 7,27.5 14,3 30.5,-1.5 23.5,-11.5 -7,-10 -29.5,-16 -30.5,-16 z"
       id="path979"
       inkscape:connector-curvature="0" />
    <path
       style="fill:#000000;fill-rule:evenodd;stroke:#000000;stroke-width:1px;stroke-linecap:butt;stroke-linejoin:miter;stroke-opacity:1"
       d="m 383.5,497.03331 c 0,0 19.5,22 39.5,22 20,0 30.5,-2.5 27,-4.5 -3.5,-2 -15.5,-39 -66.5,-17.5 z"
       id="path981"
       inkscape:connector-curvature="0" />
  </g>
</svg>
