<?xml version="1.0" encoding="UTF-8" standalone="no"?>
<!-- Created with Inkscape (http://www.inkscape.org/) -->

<svg
   xmlns:dc="http://purl.org/dc/elements/1.1/"
   xmlns:cc="http://creativecommons.org/ns#"
   xmlns:rdf="http://www.w3.org/1999/02/22-rdf-syntax-ns#"
   xmlns:svg="http://www.w3.org/2000/svg"
   xmlns="http://www.w3.org/2000/svg"
   xmlns:sodipodi="http://sodipodi.sourceforge.net/DTD/sodipodi-0.dtd"
   xmlns:inkscape="http://www.inkscape.org/namespaces/inkscape"
   width="512"
   height="512"
   viewBox="0 0 135.46666 135.46667"
   version="1.1"
   id="svg8"
   inkscape:version="0.92.2 (5c3e80d, 2017-08-06)"
   sodipodi:docname="U+7109.svg">
  <defs
     id="defs2" />
  <sodipodi:namedview
     id="base"
     pagecolor="#ffffff"
     bordercolor="#666666"
     borderopacity="1.0"
     inkscape:pageopacity="0.0"
     inkscape:pageshadow="2"
     inkscape:zoom="0.70710678"
     inkscape:cx="116.86233"
     inkscape:cy="345.21523"
     inkscape:document-units="px"
     inkscape:current-layer="layer1"
     showgrid="false"
     units="px"
     inkscape:window-width="1920"
     inkscape:window-height="1003"
     inkscape:window-x="-9"
     inkscape:window-y="-9"
     inkscape:window-maximized="1" />
  <metadata
     id="metadata5">
    <rdf:RDF>
      <cc:Work
         rdf:about="">
        <dc:format>image/svg+xml</dc:format>
        <dc:type
           rdf:resource="http://purl.org/dc/dcmitype/StillImage" />
        <dc:title></dc:title>
      </cc:Work>
    </rdf:RDF>
  </metadata>
  <g
     inkscape:label="圖層 1"
     inkscape:groupmode="layer"
     id="layer1"
     transform="translate(0,-161.53331)">
    <path
       style="fill:#000000;fill-rule:evenodd;stroke:#000000;stroke-width:0.26458332px;stroke-linecap:butt;stroke-linejoin:miter;stroke-opacity:1"
       d="m 25.135416,186.66873 c 0,0 37.570833,-2.11667 43.127083,-6.35 5.55625,-4.23334 22.489583,-4.23334 25.929166,-5.82084 3.439584,-1.5875 9.789585,4.7625 9.789585,4.7625 0,0 -5.820835,1.85209 -13.493751,1.85209 -7.672917,0 -50.535416,8.46666 -53.181249,10.84791 -2.645834,2.38125 -12.435417,-0.52916 -12.170834,-5.29166 z"
       id="path5288"
       inkscape:connector-curvature="0" />
    <path
       style="fill:#000000;fill-rule:evenodd;stroke:#000000;stroke-width:0.26458332px;stroke-linecap:butt;stroke-linejoin:miter;stroke-opacity:1"
       d="m 33.602083,202.01456 c 0,0 11.377083,3.70417 16.66875,0 5.291666,-3.70417 -1.058334,5.82083 -4.7625,7.14375 -3.704167,1.32292 -13.758333,-0.52917 -11.90625,-7.14375 z"
       id="path5290"
       inkscape:connector-curvature="0" />
    <path
       style="fill:#000000;fill-rule:evenodd;stroke:#000000;stroke-width:0.26458332px;stroke-linecap:butt;stroke-linejoin:miter;stroke-opacity:1"
       d="m 60.060416,195.13539 c 0,0 10.054166,1.05834 13.758333,-2.11666 3.704167,-3.175 12.7,-8.20209 12.7,-8.20209 l 6.614583,3.96875 c 0,0 3.175,6.35 1.058333,7.67292 -2.116666,1.32292 -27.252083,15.61042 -27.252083,16.93333 0,1.32292 15.875,-16.40416 17.991667,-17.19791 2.116667,-0.79375 5.291667,-8.73125 3.175,-8.46667 -2.116667,0.26458 -19.84375,8.73125 -20.902083,10.84792 -1.058334,2.11666 -8.73125,3.175 -7.14375,-3.43959 z"
       id="path5292"
       inkscape:connector-curvature="0" />
    <path
       style="fill:#000000;fill-rule:evenodd;stroke:#000000;stroke-width:0.26458332px;stroke-linecap:butt;stroke-linejoin:miter;stroke-opacity:1"
       d="m 43.217483,218.984 c 0,0 8.231899,2.43215 11.786584,-0.74835 3.554685,-3.18051 25.818237,-6.92228 25.818237,-6.92228 0,0 4.677217,2.61924 0.561266,3.74177 -4.115951,1.12253 -31.430896,7.67063 -31.805072,8.79317 -0.37418,1.12253 -10.289879,2.61924 -6.361015,-4.86431 z"
       id="path5296"
       inkscape:connector-curvature="0" />
    <path
       style="fill:#000000;fill-rule:evenodd;stroke:#000000;stroke-width:0.26458332px;stroke-linecap:butt;stroke-linejoin:miter;stroke-opacity:1"
       d="m 38.914443,227.2159 c 0,0 2.245063,2.80633 1.683797,8.79317 -0.561266,5.98684 -1.309621,8.60608 -1.309621,8.60608 0,0 3.180509,-1.49671 3.928864,-3.92886 0.748353,-2.43216 3.554682,1.4967 3.554682,1.4967 0,0 9.728613,-7.10936 11.973677,-5.98683 2.245063,1.12253 20.018485,-5.42557 20.018485,-5.42557 0,0 0.561266,-4.86431 -3.741771,-3.55469 -4.303041,1.30962 -29.372923,7.85773 -29.372923,7.85773 0,0 1.496711,-8.04482 -6.73519,-7.85773 z"
       id="path5298"
       inkscape:connector-curvature="0" />
    <path
       style="fill:#000000;fill-rule:evenodd;stroke:#000000;stroke-width:0.26458332px;stroke-linecap:butt;stroke-linejoin:miter;stroke-opacity:1"
       d="m 37.791911,249.66654 c 0,0 4.864306,3.74178 7.296457,2.24507 2.432153,-1.49671 44.527104,-10.47697 46.959254,-9.9157 2.432154,0.56126 9.728618,-1.87089 12.347858,1.30962 2.61924,3.18051 9.35443,3.55468 6.36101,11.59949 -2.99342,8.04482 -15.528359,23.01191 -17.399246,24.50862 -1.870888,1.49671 -14.031651,9.35443 -14.031651,9.35443 0,0 -17.399245,-15.71544 -17.399245,-19.45722 0,-3.74177 16.463803,11.78659 23.573173,9.16735 7.10937,-2.61925 21.702279,-30.12128 20.579749,-30.30837 -1.12253,-0.18709 -3.1805,-6.36101 -12.534937,-4.11595 -9.354433,2.24507 -49.765584,14.03165 -49.765584,14.03165 0,0 -7.483546,-3.3676 -5.986838,-8.41899 z"
       id="path5300"
       inkscape:connector-curvature="0" />
    <path
       style="fill:#000000;fill-rule:evenodd;stroke:#000000;stroke-width:0.26458332px;stroke-linecap:butt;stroke-linejoin:miter;stroke-opacity:1"
       d="m 17.773423,266.13034 c 0,0 -5.799748,2.61925 -3.741773,3.74178 2.057975,1.12253 5.799749,6.36101 6.361015,7.67063 0.561266,1.30962 1.683798,1.12254 4.11595,-0.93544 2.432154,-2.05797 46.585079,-12.16076 49.391409,-11.22532 2.806329,0.93544 4.115951,-5.98684 4.115951,-5.98684 0,0 -8.418992,-0.74835 -9.167347,0 -0.748353,0.74836 -48.081786,9.54152 -48.081786,9.54152 z"
       id="path5302"
       inkscape:connector-curvature="0" />
  </g>
</svg>
