<?xml version="1.0" encoding="UTF-8" standalone="no"?>
<!-- Created with Inkscape (http://www.inkscape.org/) -->

<svg
   xmlns:dc="http://purl.org/dc/elements/1.1/"
   xmlns:cc="http://creativecommons.org/ns#"
   xmlns:rdf="http://www.w3.org/1999/02/22-rdf-syntax-ns#"
   xmlns:svg="http://www.w3.org/2000/svg"
   xmlns="http://www.w3.org/2000/svg"
   xmlns:sodipodi="http://sodipodi.sourceforge.net/DTD/sodipodi-0.dtd"
   xmlns:inkscape="http://www.inkscape.org/namespaces/inkscape"
   width="512"
   height="512"
   viewBox="0 0 135.46666 135.46667"
   version="1.1"
   id="svg8"
   inkscape:version="0.92.2 (5c3e80d, 2017-08-06)"
   sodipodi:docname="U+8005.svg">
  <defs
     id="defs2" />
  <sodipodi:namedview
     id="base"
     pagecolor="#ffffff"
     bordercolor="#666666"
     borderopacity="1.0"
     inkscape:pageopacity="0.0"
     inkscape:pageshadow="2"
     inkscape:zoom="0.70710678"
     inkscape:cx="-78.044364"
     inkscape:cy="300.11481"
     inkscape:document-units="px"
     inkscape:current-layer="layer1"
     showgrid="false"
     units="px"
     inkscape:window-width="1920"
     inkscape:window-height="1003"
     inkscape:window-x="-9"
     inkscape:window-y="-9"
     inkscape:window-maximized="1" />
  <metadata
     id="metadata5">
    <rdf:RDF>
      <cc:Work
         rdf:about="">
        <dc:format>image/svg+xml</dc:format>
        <dc:type
           rdf:resource="http://purl.org/dc/dcmitype/StillImage" />
        <dc:title></dc:title>
      </cc:Work>
    </rdf:RDF>
  </metadata>
  <g
     inkscape:label="圖層 1"
     inkscape:groupmode="layer"
     id="layer1"
     transform="translate(0,-161.53331)">
    <path
       style="fill:#000000;fill-rule:evenodd;stroke:#000000;stroke-width:0.26458332px;stroke-linecap:butt;stroke-linejoin:miter;stroke-opacity:1"
       d="m 46.023813,192.6045 c 0,0 24.695702,-8.60608 26.940766,-9.35443 2.245063,-0.74836 4.864306,3.74177 3.367598,4.8643 -1.496711,1.12253 -24.695705,8.98026 -24.695705,8.98026 0,0 -8.980255,-1.49671 -5.612659,-4.49013 z"
       id="path5315"
       inkscape:connector-curvature="0" />
    <path
       style="fill:#000000;fill-rule:evenodd;stroke:#000000;stroke-width:0.26458332px;stroke-linecap:butt;stroke-linejoin:miter;stroke-opacity:1"
       d="m 52.759003,172.02475 c 0,0 4.490128,-0.37418 5.238483,14.59291 0.748356,14.96709 -1.122532,23.199 -1.122532,23.199 l 3.741775,0.74835 c 0,0 8.231899,-34.42431 5.612659,-35.17267 -2.619243,-0.74835 -9.354434,-7.10937 -13.470385,-3.36759 z"
       id="path5317"
       inkscape:connector-curvature="0" />
    <path
       style="fill:#000000;fill-rule:evenodd;stroke:#000000;stroke-width:0.26458332px;stroke-linecap:butt;stroke-linejoin:miter;stroke-opacity:1"
       d="m 13.096206,218.04856 c 0,0 5.238483,2.24506 10.102788,0.74835 4.864307,-1.49671 57.997487,-13.0962 63.610146,-13.47038 5.612661,-0.37418 17.58634,-2.99342 17.58634,-2.99342 0,0 1.49671,-4.49013 1.49671,-6.36101 0,-1.87089 12.34785,6.73519 9.72861,8.60607 -2.61925,1.87089 -78.951421,11.22532 -82.319017,15.34128 -3.367598,4.11595 -15.715448,8.98025 -15.715448,8.98025 0,0 -10.1027884,-8.98025 -4.490129,-10.85114 z"
       id="path5319"
       inkscape:connector-curvature="0" />
    <path
       style="fill:#000000;fill-rule:evenodd;stroke:#000000;stroke-width:0.26458332px;stroke-linecap:butt;stroke-linejoin:miter;stroke-opacity:1"
       d="m 96.911929,180.63082 c 0,0 -22.450639,41.53369 -32.179249,48.26888 -9.728613,6.73519 -47.146345,39.28862 -47.146345,39.28862 0,0 11.225319,-2.24506 20.953931,-11.5995 9.72861,-9.35443 41.159506,-40.03697 41.159506,-40.03697 l 21.702288,-29.56001 c 0,0 1.49671,-7.85772 -4.490131,-6.36102 z"
       id="path5321"
       inkscape:connector-curvature="0" />
    <path
       style="fill:#000000;fill-rule:evenodd;stroke:#000000;stroke-width:0.26458332px;stroke-linecap:butt;stroke-linejoin:miter;stroke-opacity:1"
       d="m 50.51394,231.89312 c 0,0 2.245063,28.81166 4.490127,30.30836 2.245064,1.49671 -9.354434,4.11595 -9.354434,4.11595 0,0 2.99342,6.7352 6.361015,5.23849 3.367598,-1.49671 26.940769,-7.10937 26.940769,-7.10937 0,0 2.993419,5.23848 1.870887,8.98025 -1.122532,3.74178 4.115951,3.74178 4.115951,3.74178 l 5.238483,-43.40457 c 0,0 -2.619243,-8.23191 -6.361015,-7.48355 -3.741774,0.74836 -15.715448,1.12253 -15.715448,1.12253 0,0 0,6.36102 2.993419,6.36102 2.993417,0 13.096206,-4.86431 13.096206,-4.86431 0,0 1.870887,19.45722 0.748355,24.69571 -1.122532,5.23848 -24.321526,11.22531 -25.818237,9.35443 -1.496708,-1.87089 -4.864304,-32.55343 -3.367595,-31.80508 1.496708,0.74836 -5.238483,0.74836 -5.238483,0.74836 z"
       id="path5323"
       inkscape:connector-curvature="0" />
    <path
       style="fill:#000000;fill-rule:evenodd;stroke:#000000;stroke-width:0.26458332px;stroke-linecap:butt;stroke-linejoin:miter;stroke-opacity:1"
       d="m 60.24255,247.98274 13.470384,-4.8643 c 0,0 -2.61924,8.98025 -7.10937,8.60608 -4.490127,-0.37418 -6.735191,0 -6.361014,-3.74178 z"
       id="path5325"
       inkscape:connector-curvature="0" />
  </g>
</svg>
