<?xml version="1.0" encoding="UTF-8" standalone="no"?>
<!-- Created with Inkscape (http://www.inkscape.org/) -->

<svg
   xmlns:dc="http://purl.org/dc/elements/1.1/"
   xmlns:cc="http://creativecommons.org/ns#"
   xmlns:rdf="http://www.w3.org/1999/02/22-rdf-syntax-ns#"
   xmlns:svg="http://www.w3.org/2000/svg"
   xmlns="http://www.w3.org/2000/svg"
   xmlns:sodipodi="http://sodipodi.sourceforge.net/DTD/sodipodi-0.dtd"
   xmlns:inkscape="http://www.inkscape.org/namespaces/inkscape"
   width="512"
   height="512"
   viewBox="0 0 512 512"
   version="1.1"
   id="svg8"
   inkscape:version="0.92.2 (5c3e80d, 2017-08-06)"
   sodipodi:docname="U+8499.svg">
  <defs
     id="defs2" />
  <sodipodi:namedview
     id="base"
     pagecolor="#ffffff"
     bordercolor="#666666"
     borderopacity="1.0"
     inkscape:pageopacity="0.0"
     inkscape:pageshadow="2"
     inkscape:zoom="0.7"
     inkscape:cx="-14.494064"
     inkscape:cy="267.93618"
     inkscape:document-units="px"
     inkscape:current-layer="layer1"
     showgrid="false"
     units="px"
     inkscape:window-width="1920"
     inkscape:window-height="1003"
     inkscape:window-x="-9"
     inkscape:window-y="-9"
     inkscape:window-maximized="1" />
  <metadata
     id="metadata5">
    <rdf:RDF>
      <cc:Work
         rdf:about="">
        <dc:format>image/svg+xml</dc:format>
        <dc:type
           rdf:resource="http://purl.org/dc/dcmitype/StillImage" />
        <dc:title></dc:title>
      </cc:Work>
    </rdf:RDF>
  </metadata>
  <g
     inkscape:label="圖層 1"
     inkscape:groupmode="layer"
     id="layer1"
     transform="translate(0,-161.53331)">
    <path
       style="fill:#000000;fill-rule:evenodd;stroke:#000000;stroke-width:1px;stroke-linecap:butt;stroke-linejoin:miter;stroke-opacity:1"
       d="m 159.74002,342.25268 c 3.92858,-0.71429 90.61712,-13.36223 92.40284,-15.50508 1.78571,-2.14286 51.42857,-9.64286 55.71428,-7.85715 4.28572,1.78572 28.92857,-12.14285 39.28572,-6.78571 10.35714,5.35714 9.64285,28.57143 4.28571,35.71428 -5.35714,7.14286 19.64286,3.92858 23.57143,0.71429 3.92857,-3.21429 22.85714,-22.14286 18.92857,-26.78571 C 390,317.10474 370,293.89045 365.71429,294.60474 c -4.28572,0.71428 -11.07143,11.42857 -18.92858,12.14286 -7.85714,0.71428 -62.5,6.42857 -64.64285,7.85714 -2.14286,1.42857 -50.71429,4.64286 -50.71429,6.42857 0,1.78571 26.78572,-55 23.92857,-55.71429 -2.85714,-0.71428 61.07143,-9.64285 66.42857,-14.28571 5.35715,-4.64286 4.28572,-16.07143 2.14286,-16.78572 -2.14286,-0.71428 -14.28571,-9.64285 -20.35714,-8.21428 -6.07143,1.42857 -38.92857,18.57143 -38.92857,18.57143 l 9.64285,-34.64286 c 0,0 -33.21428,-49.28571 -39.28571,-47.85714 -6.07143,1.42857 -6.07143,12.5 -6.07143,12.5 L 242.5,218.53331 c 0,0 -16.07143,35.35714 -14.28571,36.78571 1.78571,1.42858 7.85714,4.64286 6.78571,10.35715 -1.07143,5.71428 -18.21429,55 -18.21429,55 0,0 -20.71428,5.35714 -23.21428,3.21428 -2.5,-2.14285 3.21428,-26.07143 0,-28.92857 -3.21429,-2.85714 -6.42857,-39.28571 -0.35714,-47.85714 6.07142,-8.57143 -10,-23.57143 -11.78572,-23.57143 -1.78571,0 -7.14286,6.42857 -18.21428,-11.42857 -11.07143,-17.85715 -13.57143,-19.64286 -13.57143,-19.64286 0,0 -7.8926,9.35364 -2.16059,15.39111 0,0 26.26397,39.39595 22.22336,46.46701 -4.04061,7.07107 -45.45687,12.12183 -55.55839,4.04061 -10.10153,-8.08122 -1.01015,54.54824 21.2132,41.41626 22.22336,-13.13198 27.27412,-26.26397 33.33504,-23.23351 6.06091,3.03046 21.2132,51.89659 15.78363,50.6339 -5.42957,-1.2627 -31.62197,-0.78681 -31.26482,0.64176 0.35714,1.42858 -28.21249,1.0058 -24.28392,0.29152 -3.90469,-1.46583 -23.87451,-0.55448 -27.91512,-0.55448 -4.040606,0 6.06092,20.20305 6.06092,23.23351 0,3.03046 14.64721,4.04061 17.67767,4.04061 3.03046,0 -1.01015,-7.07107 -1.01015,-7.07107 z"
       id="path826"
       inkscape:connector-curvature="0"
       sodipodi:nodetypes="cccsssccccscscsccscccscccsssccssssccc" />
    <path
       style="fill:#000000;fill-rule:evenodd;stroke:#000000;stroke-width:1px;stroke-linecap:butt;stroke-linejoin:miter;stroke-opacity:1"
       d="m 60.609153,332.10175 c 0,0 16.667517,33.33503 15.657364,36.36549 -1.010152,3.03046 -22.223356,59.09393 -22.223356,59.09393 0,0 -11.111678,0 -12.626907,-3.03046 -1.515228,-3.03046 6.565992,31.31473 12.626907,26.76904 6.060915,-4.54569 37.375644,-80.30713 35.355339,-81.82236 -2.020305,-1.51523 -3.535534,-32.32488 -7.576144,-32.82995 -4.04061,-0.50508 -18.182746,-9.09138 -21.213203,-4.54569 z"
       id="path828"
       inkscape:connector-curvature="0" />
    <path
       style="fill:#000000;fill-rule:evenodd;stroke:#000000;stroke-width:1px;stroke-linecap:butt;stroke-linejoin:miter;stroke-opacity:1"
       d="m 175.26147,361.90125 c 0,0 47.98224,2.0203 48.9924,-2.02031 1.01015,-4.04061 27.27411,7.57615 12.12183,21.21321 -15.15229,13.63706 -78.28683,0.50507 -61.11423,-19.1929 z"
       id="path830"
       inkscape:connector-curvature="0" />
    <path
       style="fill:#000000;fill-rule:evenodd;stroke:#000000;stroke-width:1px;stroke-linecap:butt;stroke-linejoin:miter;stroke-opacity:1"
       d="m 124.75384,433.62208 c 0,0 93.94419,-20.70813 109.60155,-19.1929 15.65737,1.51523 12.12183,-15.65736 14.64721,-15.15229 2.52538,0.50508 29.29443,1.51523 25.25382,8.5863 -4.04061,7.07107 -59.599,40.91118 -59.599,45.45686 0,4.54569 -93.94419,78.7919 -102.02541,75.76145 -8.08122,-3.03046 -7.57615,-15.15229 0,-18.68783 7.57614,-3.53553 -2.02031,-16.16244 3.03046,-16.16244 5.05076,0 9.09137,-4.54568 12.6269,-2.0203 3.53554,2.52538 3.03046,7.07107 3.03046,7.07107 0,0 108.08632,-63.63961 98.48987,-70.71068 -9.59644,-7.07107 -89.90357,28.78935 -91.92388,32.32488 -2.0203,3.53553 -27.77919,-14.14214 -13.13198,-27.27412 z"
       id="path832"
       inkscape:connector-curvature="0" />
    <path
       style="fill:#000000;fill-rule:evenodd;stroke:#000000;stroke-width:1px;stroke-linecap:butt;stroke-linejoin:miter;stroke-opacity:1"
       d="m 131.82491,547.26424 c 0,0 -6.06092,20.20305 -33.840113,31.31473 -27.779195,11.11168 14.647213,20.20305 27.274123,0.50508 12.6269,-19.69798 12.6269,-20.20305 12.6269,-20.20305 0,0 15.65737,29.29442 13.63706,31.31472 -2.0203,2.02031 -48.9924,47.98225 -65.659914,51.01271 -16.667517,3.03046 -12.12183,18.68782 3.030458,15.15229 15.152286,-3.53554 63.134536,-55.05332 63.134536,-55.05332 0,0 35.86041,19.69798 23.73858,35.86042 -12.12183,16.16244 -36.36549,-13.13198 -10.6066,21.2132 25.75889,34.34519 28.28427,-11.61675 17.17259,-29.29442 -11.11167,-17.67767 -41.92133,-72.73099 -40.91117,-78.7919 1.01015,-6.06092 -3.03046,-23.23351 19.19289,-19.1929 22.22336,4.04061 63.13454,-43.43656 63.13454,-43.43656 0,0 -1.51523,-8.08122 -6.56599,-6.56599 -5.05077,1.51523 -42.93149,43.94164 -59.599,42.42641 -16.66752,-1.51523 -29.7995,-1.01016 -25.75889,23.73858 z"
       id="path834"
       inkscape:connector-curvature="0" />
    <path
       style="fill:#000000;fill-rule:evenodd;stroke:#000000;stroke-width:1px;stroke-linecap:butt;stroke-linejoin:miter;stroke-opacity:1"
       d="m 308.6016,423.52055 c 0,0 13.13199,17.67767 -1.01015,31.81981 -14.14214,14.14214 -33.84011,41.92133 -52.52793,38.3858 -18.68782,-3.53554 -18.68782,-3.53554 -24.74874,11.11167 -6.06091,14.64722 -27.27412,37.37565 -34.85026,39.90103 -7.57615,2.52538 3.53553,12.62691 9.09137,10.6066 5.55584,-2.0203 36.36549,-52.02285 41.41625,-48.48732 5.05077,3.53553 -3.03045,94.95434 -13.13198,100.51018 -10.10152,5.55584 -7.57614,-44.95179 -7.57614,-44.95179 0,0 -11.61676,-0.50508 -8.5863,12.62691 3.03046,13.13198 6.56599,59.599 15.15229,63.13453 8.5863,3.53553 44.95179,-114.65231 34.85026,-123.23861 -10.10152,-8.5863 61.11423,54.54824 67.68022,54.54824 6.56599,0 22.22336,17.17259 63.13454,9.09137 40.91117,-8.08122 56.56854,-3.53553 61.6193,-12.62691 5.05076,-9.09137 3.03046,-19.19289 -19.69797,-16.66751 -22.72843,2.52538 -98.99495,3.53553 -121.21831,-12.12183 -22.22335,-15.65737 -56.56854,-32.32489 -56.06346,-35.35534 0.50507,-3.03046 36.87056,-14.64721 43.43656,-22.22336 6.56599,-7.57614 27.77919,-17.17259 31.31472,-21.71828 3.53554,-4.54569 -10.10152,-36.36549 -28.28427,-34.34519 z"
       id="path836"
       inkscape:connector-curvature="0" />
  </g>
</svg>
