<?xml version="1.0" encoding="UTF-8" standalone="no"?>
<!-- Created with Inkscape (http://www.inkscape.org/) -->

<svg
   xmlns:dc="http://purl.org/dc/elements/1.1/"
   xmlns:cc="http://creativecommons.org/ns#"
   xmlns:rdf="http://www.w3.org/1999/02/22-rdf-syntax-ns#"
   xmlns:svg="http://www.w3.org/2000/svg"
   xmlns="http://www.w3.org/2000/svg"
   xmlns:sodipodi="http://sodipodi.sourceforge.net/DTD/sodipodi-0.dtd"
   xmlns:inkscape="http://www.inkscape.org/namespaces/inkscape"
   width="512"
   height="512"
   viewBox="0 0 512 512"
   version="1.1"
   id="svg8"
   inkscape:version="0.92.2 (5c3e80d, 2017-08-06)"
   sodipodi:docname="U+8A9A.svg">
  <defs
     id="defs2" />
  <sodipodi:namedview
     id="base"
     pagecolor="#ffffff"
     bordercolor="#666666"
     borderopacity="1.0"
     inkscape:pageopacity="0.0"
     inkscape:pageshadow="2"
     inkscape:zoom="1"
     inkscape:cx="241.87332"
     inkscape:cy="324.01119"
     inkscape:document-units="px"
     inkscape:current-layer="layer1"
     showgrid="false"
     units="px"
     inkscape:window-width="1920"
     inkscape:window-height="1003"
     inkscape:window-x="-9"
     inkscape:window-y="-9"
     inkscape:window-maximized="1" />
  <metadata
     id="metadata5">
    <rdf:RDF>
      <cc:Work
         rdf:about="">
        <dc:format>image/svg+xml</dc:format>
        <dc:type
           rdf:resource="http://purl.org/dc/dcmitype/StillImage" />
        <dc:title></dc:title>
      </cc:Work>
    </rdf:RDF>
  </metadata>
  <g
     inkscape:label="圖層 1"
     inkscape:groupmode="layer"
     id="layer1"
     transform="translate(0,-161.53331)">
    <path
       style="fill:#000000;fill-rule:evenodd;stroke:#000000;stroke-width:1px;stroke-linecap:butt;stroke-linejoin:miter;stroke-opacity:1"
       d="m 153,227.53331 c 0,0 31,28 22,39 -9,11 -113,32 -113,32 l -18,-7 2,22 c 0,0 11,15 21,12 10,-3 67,-38 105,-40 38,-2 71,-10 71,-10 0,0 5,-17 -7,-15 -12,2 -44,8 -44,8 l 19,-30 c 0,0 -45,-24 -58,-11 z"
       id="path849"
       inkscape:connector-curvature="0" />
    <path
       style="fill:#000000;fill-rule:evenodd;stroke:#000000;stroke-width:1px;stroke-linecap:butt;stroke-linejoin:miter;stroke-opacity:1"
       d="m 124,346.53331 c 0,0 63,-21 73,-15 10,6 -30,16 -34,20 -4,4 -24,16 -24,16 0,0 -21,-7 -15,-21 z"
       id="path851"
       inkscape:connector-curvature="0" />
    <path
       style="fill:#000000;fill-rule:evenodd;stroke:#000000;stroke-width:1px;stroke-linecap:butt;stroke-linejoin:miter;stroke-opacity:1"
       d="m 98,396.53331 c 0,0 77,-9 85,-17 8,-8 30,6 20,9 -10,3 -48,6 -51,9 -3,3 -31,25 -36,21 -5,-4 -32,-9 -18,-22 z"
       id="path853"
       inkscape:connector-curvature="0" />
    <path
       style="fill:#000000;fill-rule:evenodd;stroke:#000000;stroke-width:1px;stroke-linecap:butt;stroke-linejoin:miter;stroke-opacity:1"
       d="m 96,445.53331 c 0,0 23,39 24,43 1,4 12,4 12,-7 0,-11 -33,-42 -36,-36 z"
       id="path855"
       inkscape:connector-curvature="0" />
    <path
       style="fill:#000000;fill-rule:evenodd;stroke:#000000;stroke-width:1px;stroke-linecap:butt;stroke-linejoin:miter;stroke-opacity:1"
       d="m 141,450.53331 c 0,0 44,-8 52,-13 8,-5 35,18 25,25 -10,7 -13,32 -23,32 -10,0 -7,-33 -11,-34 -4,-1 -48,14 -43,-10 z"
       id="path857"
       inkscape:connector-curvature="0" />
    <path
       style="fill:#000000;fill-rule:evenodd;stroke:#000000;stroke-width:1px;stroke-linecap:butt;stroke-linejoin:miter;stroke-opacity:1"
       d="m 123,509.53331 c 0,0 4,21 8,21 4,0 52,-14 57,-17 5,-3 2,-13 -11,-10 -13,3 -47,16 -54,6 z"
       id="path859"
       inkscape:connector-curvature="0" />
    <path
       style="fill:#000000;fill-rule:evenodd;stroke:#000000;stroke-width:1px;stroke-linecap:butt;stroke-linejoin:miter;stroke-opacity:1"
       d="m 308,232.53331 c 0,0 31,26 31,41 0,15 -3,31 -5,49 -2,18 -30,9 -6,32 24,23 13,-34 18,-38 5,-4 0,-58 15,-51 15,7 -19,-54 -53,-33 z"
       id="path861"
       inkscape:connector-curvature="0" />
    <path
       style="fill:#000000;fill-rule:evenodd;stroke:#000000;stroke-width:1px;stroke-linecap:butt;stroke-linejoin:miter;stroke-opacity:1"
       d="m 261,300.53331 c 0,0 1,27 9,29 8,2 21,4 21,-3 0,-7 -20,-31 -30,-26 z"
       id="path863"
       inkscape:connector-curvature="0" />
    <path
       style="fill:#000000;fill-rule:evenodd;stroke:#000000;stroke-width:1px;stroke-linecap:butt;stroke-linejoin:miter;stroke-opacity:1"
       d="m 421,255.53331 c 0,0 14,21 -1,27 -15,6 -45,28 -31,27 14,-1 55,-12 56,-22 1,-10 6,-52 -24,-32 z"
       id="path865"
       inkscape:connector-curvature="0" />
    <path
       style="fill:#000000;fill-rule:evenodd;stroke:#000000;stroke-width:1px;stroke-linecap:butt;stroke-linejoin:miter;stroke-opacity:1"
       d="m 275,372.53331 c 0,0 0,100 -9,117 -9,17 -12,51 2,53 14,2 20,-28 15,-41 -5,-13 0,-70 5,-81 5,-11 -3,-56 -13,-48 z"
       id="path867"
       inkscape:connector-curvature="0" />
    <path
       style="fill:#000000;fill-rule:evenodd;stroke:#000000;stroke-width:1px;stroke-linecap:butt;stroke-linejoin:miter;stroke-opacity:1"
       d="m 299,368.53331 c 25,-1 76,-27 84,-24 8,3 10,41 2,56 -8,15 -5,107 -5,115 0,8 8,54 5,58 -3,4 -12,12 -26,-16 -14,-28 -1,-38 7,-32 8,6 7,-134 9,-152 2,-18 -86,29 -76,-5 z"
       id="path869"
       inkscape:connector-curvature="0" />
    <path
       style="fill:#000000;fill-rule:evenodd;stroke:#000000;stroke-width:1px;stroke-linecap:butt;stroke-linejoin:miter;stroke-opacity:1"
       d="m 302,419.53331 c 0,0 34,-7 39,-14 5,-7 -7,32 -19,30 -12,-2 -38,-3 -20,-16 z"
       id="path871"
       inkscape:connector-curvature="0" />
    <path
       style="fill:#000000;fill-rule:evenodd;stroke:#000000;stroke-width:1px;stroke-linecap:butt;stroke-linejoin:miter;stroke-opacity:1"
       d="m 307,475.53331 c 0,0 50,-9 41,4 -9,13 -48,26 -51,12 -3,-14 -20,5 10,-16 z"
       id="path873"
       inkscape:connector-curvature="0" />
  </g>
</svg>
