<?xml version="1.0" encoding="UTF-8" standalone="no"?>
<!-- Created with Inkscape (http://www.inkscape.org/) -->

<svg
   xmlns:dc="http://purl.org/dc/elements/1.1/"
   xmlns:cc="http://creativecommons.org/ns#"
   xmlns:rdf="http://www.w3.org/1999/02/22-rdf-syntax-ns#"
   xmlns:svg="http://www.w3.org/2000/svg"
   xmlns="http://www.w3.org/2000/svg"
   xmlns:sodipodi="http://sodipodi.sourceforge.net/DTD/sodipodi-0.dtd"
   xmlns:inkscape="http://www.inkscape.org/namespaces/inkscape"
   width="512"
   height="512"
   viewBox="0 0 512 512"
   version="1.1"
   id="svg8"
   inkscape:version="0.92.2 (5c3e80d, 2017-08-06)"
   sodipodi:docname="U+8A9E.svg">
  <defs
     id="defs2" />
  <sodipodi:namedview
     id="base"
     pagecolor="#ffffff"
     bordercolor="#666666"
     borderopacity="1.0"
     inkscape:pageopacity="0.0"
     inkscape:pageshadow="2"
     inkscape:zoom="0.70710678"
     inkscape:cx="38.064013"
     inkscape:cy="279.0559"
     inkscape:document-units="px"
     inkscape:current-layer="layer1"
     showgrid="false"
     units="px"
     inkscape:window-width="1920"
     inkscape:window-height="1003"
     inkscape:window-x="-9"
     inkscape:window-y="-9"
     inkscape:window-maximized="1" />
  <metadata
     id="metadata5">
    <rdf:RDF>
      <cc:Work
         rdf:about="">
        <dc:format>image/svg+xml</dc:format>
        <dc:type
           rdf:resource="http://purl.org/dc/dcmitype/StillImage" />
        <dc:title></dc:title>
      </cc:Work>
    </rdf:RDF>
  </metadata>
  <g
     inkscape:label="圖層 1"
     inkscape:groupmode="layer"
     id="layer1"
     transform="translate(0,-161.53331)">
    <path
       style="fill:#000000;fill-rule:evenodd;stroke:#000000;stroke-width:1px;stroke-linecap:butt;stroke-linejoin:miter;stroke-opacity:1"
       d="m 116,234.53331 c 0,0 19,5 22,22 3,17 11,38 7,41 -4,3 -110,20 -110,25 0,5 -16,-19 -19,-14 -3,5 -6,35 11,38 17,3 46,-27 52,-24 6,3 96,-14 96,-14 0,0 32,-15 11,-19 -21,-4 -31,6 -31,6 l 21,-45 c 0,0 -32,-36 -40,-32 -8,4 -21,3 -20,16 z"
       id="path911"
       inkscape:connector-curvature="0" />
    <path
       style="fill:#000000;fill-rule:evenodd;stroke:#000000;stroke-width:1px;stroke-linecap:butt;stroke-linejoin:miter;stroke-opacity:1"
       d="m 73,380.53331 c 0,0 35,-13 54,-19 19,-6 27,19 21,19 -6,0 -35,15 -38,19 -3,4 -43,-7 -37,-19 z"
       id="path913"
       inkscape:connector-curvature="0" />
    <path
       style="fill:#000000;fill-rule:evenodd;stroke:#000000;stroke-width:1px;stroke-linecap:butt;stroke-linejoin:miter;stroke-opacity:1"
       d="m 59,438.53331 81,-19 c 0,0 20,10 8,15 -12,5 -73,29 -73,29 0,0 -27,-6 -16,-25 z"
       id="path915"
       inkscape:connector-curvature="0" />
    <path
       style="fill:#000000;fill-rule:evenodd;stroke:#000000;stroke-width:1px;stroke-linecap:butt;stroke-linejoin:miter;stroke-opacity:1"
       d="m 47,496.53331 c 0,0 23,16 23,32 0,16 9,78 20,81 11,3 4,-34 4,-34 0,0 71,-24 75,-27 4,-3 -21,-7 -15,-12 6,-5 22,-41 27,-41 5,0 -30,-28 -39,-25 -9,3 -54,35 -58,28 -4,-7 -2,21 4,21 6,0 44,-29 52,-21 8,8 3,37 3,37 0,0 -47,20 -49,15 -2,-5 -13,-59 -13,-59 0,0 -36,-4 -34,5 z"
       id="path917"
       inkscape:connector-curvature="0" />
    <path
       style="fill:#000000;fill-rule:evenodd;stroke:#000000;stroke-width:1px;stroke-linecap:butt;stroke-linejoin:miter;stroke-opacity:1"
       d="m 244,257.53331 c 0,0 24,28 38,19 14,-9 118,-10 118,-17 0,-7 41,21 24,25 -17,4 -89,-11 -100,-2 -11,9 -63,10 -69,18 -6,8 -21,-40 -11,-43 z"
       id="path919"
       inkscape:connector-curvature="0" />
    <path
       style="fill:#000000;fill-rule:evenodd;stroke:#000000;stroke-width:1px;stroke-linecap:butt;stroke-linejoin:miter;stroke-opacity:1"
       d="m 346.75,324.03331 c -42.93146,45.4919 0.38209,21.51518 8,41 0.91032,2.32837 0,42.5 -2,43 -2,0.5 -63.40963,14.21087 -63.75,12.75 -0.32102,-1.37781 43.76751,-89.52796 57.75,-96.75 m 0,0 c -1.64322,-12.38367 -7.5,-34.25 -30.25,-26.75 0,0 5.5,28 -3.25,32.5 -8.75,4.5 -40.25,10.25 -51.5,2.25 -11.25,-8 -17.25,28 -4.75,36 12.5,8 42.25,-6 43.75,-8 1.5,-2 -45,62.25 -48.25,62.5 -3.25,0.25 -75.5,15.25 -74.75,18.75 0.75,3.5 12.25,21.5 21.5,17.75 9.25,-3.75 77.5,-32.75 94.5,-30.5 17,2.25 53.5,-4 56.5,-7.5 3,-3.5 93.5,0.5 95,1 1.5,0.5 62.75,21 66.75,19.5 4,-1.5 25.5,-7.5 12,-21.5 -13.5,-14 -38,-19 -54,-15.75 -16,3.25 -101.5,3.25 -103,4.75 -1.5,1.5 7.25,-33.75 13,-40 5.75,-6.25 -23.25,-45.75 -33.25,-45"
       id="path923"
       inkscape:connector-curvature="0"
       sodipodi:nodetypes="cssscccsssssssssssssssc" />
    <path
       style="fill:#000000;fill-rule:evenodd;stroke:#000000;stroke-width:1px;stroke-linecap:butt;stroke-linejoin:miter;stroke-opacity:1"
       d="m 275.06454,481.20027 c 0,0 75.66042,-14.84925 78.48885,-19.09189 2.82843,-4.24264 9.89949,-10.6066 9.89949,-10.6066 0,0 42.42641,21.2132 38.89088,24.04163 -3.53554,2.82843 -28.99138,53.03301 -26.87006,57.98276 2.12132,4.94975 14.84924,16.97056 6.36396,16.97056 -8.48528,0 -106.06602,5.65685 -106.77312,9.8995 -0.70711,4.24264 11.31371,26.87005 3.53553,26.87005 -7.77817,0 -9.89949,-4.24264 -10.6066,-25.45584 -0.70711,-21.2132 -21.92031,-71.41779 -28.99138,-70.00357 -7.07107,1.41421 2.12132,-23.33453 9.19239,-18.38478 7.07107,4.94975 31.8198,62.2254 29.69848,70.71068 -2.12132,8.48528 78.48886,-11.31371 78.48886,-11.31371 0,0 13.43503,-50.91169 8.48528,-52.3259 -4.94975,-1.41421 -72.12489,12.72792 -73.53911,16.97056 -1.41421,4.24264 -21.92031,-9.89949 -16.26345,-16.26345 z"
       id="path925"
       inkscape:connector-curvature="0" />
  </g>
</svg>
